<?xml version="1.0" encoding="UTF-8"?>
<svg id="Capa_2" data-name="Capa 2" xmlns="http://www.w3.org/2000/svg" viewBox="0 0 193.25 192.92">
  <defs>
    <style>
      .cls-1 {
        fill: #0f56bc;
      }

      .cls-2 {
        fill: #2262ea;
      }
    </style>
  </defs>
  <g id="Capa_1-2" data-name="Capa 1">
    <g>
      <path class="cls-1" d="m183.98,177.49l-25.62-35.51c-5.42,5.75-13.09,9.36-21.57,9.35-26.79-.02-53.58-.04-80.37-.03-8.62,0-16.35-3.57-21.79-9.32,0,0,0,0,0,0h0l-21.68,39.75c-.49-.46-.97-.94-1.44-1.43,7.49,7.77,18.03,12.58,29.77,12.58,36.93-.02,73.86.01,110.79.04,15.28.01,28.66-8.48,35.67-20.98-1.1,1.95-2.35,3.81-3.74,5.55Z"/>
      <path class="cls-2" d="m192.86,41.24c-.02-11.27-4.06-20.96-10.2-27.44C173.25,4.37,162.77.04,151.78.04,114.77.03,77.75.02,40.74,0,18.4-.01-.01,18.4,0,40.76,0,56.36.01,71.97.02,87.57s0,31.36.02,47.04c0,3.92,0,7.84,0,11.76,0,5.35-.02,10.51,1.36,15.73,1.78,6.78,5.23,13.14,10.1,18.2.47.49.95.96,1.44,1.43,0,0,21.68-39.75,21.69-39.75-.31-.33-.61-.66-.93-1.03-6.83-7.94-7.18-17.13-7.19-27.06,0-11.41,0-22.83-.01-34.24,0-12.9,0-25.8-.01-38.7,0-16.22,13.35-29.58,29.56-29.57,26.85.02,53.7.02,80.56.03,7.97,0,15.58,3.14,22.41,9.98,4.45,4.71,7.39,11.74,7.4,19.91,0,23.9.02,47.79.04,71.69,0,9.98-.35,20.05-7.18,28-.29.34-.59.68-.9,1,0,0,25.62,35.51,25.62,35.51,0-.01,3.75-5.57,4.06-6.16,1.26-2.4,2.29-4.92,3.09-7.51,3.27-10.68,1.8-22.68,1.79-33.72,0-12.04,0-24.09-.01-36.13,0-17.58-.01-35.17-.04-52.75Z"/>
      <path class="cls-2" d="m124.76,83.23v16.57c0,3.74-1.99,6.88-5.98,9.42-3.98,2.54-10.52,3.8-19.61,3.8s-16.66-2.92-22.73-8.76c-6.07-5.84-9.1-13.49-9.1-22.93s3.02-17.11,9.06-22.98c6.04-5.87,13.29-8.81,21.76-8.81s14.91,1.33,19.33,3.98,6.66,5.15,6.72,7.47-.7,4.4-2.29,6.23-3.14,2.74-4.66,2.74-3.73-.73-6.61-2.2-6.75-2.23-11.61-2.29c-4.86-.06-8.46,1.43-10.8,4.46s-3.51,6.84-3.51,11.41,1.37,8.34,4.12,11.3,6.49,4.41,11.23,4.35c4.74-.06,7.11-1.9,7.11-5.52,0-.42-.06-.85-.18-1.27h-2.81c-5.43,0-8.15-2.54-8.15-7.61s2.72-7.61,8.15-7.61h13.58c4.65,0,6.97,2.75,6.97,8.24Z"/>
      <path class="cls-2" d="m134.64,120.37c-.42-.14-.84-.3-1.27-.41-.92-.24-1.41-.85-1.71-1.73-.57-1.68-.34-3.39-.23-5.09.06-.9.21-1.8.42-2.67.08-.33.39-.71.7-.86,1.04-.51,2.11-1,3.2-1.38,1.87-.64,2.93-1.75,3.19-3.84.87-6.83,3.16-13.22,6.18-19.38.75-1.52.76-3.14.01-4.66-2.81-5.72-5.02-11.63-6.13-17.92-.05-.3-.14-.61-.15-.91-.07-1.84-1.24-2.74-2.79-3.35-1.21-.48-2.41-1.01-3.6-1.55-.23-.11-.51-.33-.57-.56-.52-2.13-.81-4.29-.39-6.49.24-1.25.95-2.05,2.2-2.44,3.94-1.23,7.43-.25,10.68,2.06.7,1.23,1.52,2.41,2.09,3.7.87,1.97,1.05,4.13,1.31,6.25.78,6.43,2.32,12.62,6.02,18.07,2.48,3.66,2.47,7.19-.03,10.84-2.87,4.17-4.35,8.89-5.12,13.85-.41,2.63-.57,5.3-1.04,7.91-.28,1.54-.85,3.06-1.46,4.51-1.31,3.14-4.1,4.4-7.11,5.29-1.06.31-2.16.5-3.24.74h-1.14Z"/>
      <path class="cls-2" d="m63.29,52.44c-.19,1.41-.35,2.83-.61,4.23-.06.33-.39.72-.69.86-1.33.62-2.73,1.1-4.06,1.73-1.11.52-2.02,1.26-2.19,2.63-.9,7.2-3.23,13.94-6.41,20.43-.68,1.38-.67,2.95,0,4.33,2.79,5.7,5.03,11.58,6.15,17.85.07.37.19.75.2,1.12.03,1.82,1.18,2.71,2.7,3.33,1.25.51,2.5,1.04,3.73,1.6.21.1.48.31.53.51.49,2.09.79,4.19.44,6.35-.33,2.08-1.88,2.67-3.6,2.96-3.34.56-6.37-.29-9.08-2.26-.53-.39-.92-1.02-1.27-1.6-1.42-2.32-1.97-4.92-2.26-7.58-.76-6.8-2.34-13.32-6.17-19.14-.7-1.06-1.14-2.29-1.63-3.47-.48-1.16-.49-2.39,0-3.55.53-1.27,1.04-2.57,1.78-3.71,2.85-4.42,4.39-9.3,5.16-14.45.39-2.61.62-5.24,1.03-7.84.16-1.02.56-2.01.9-2.99,1.33-3.78,4.39-5.43,7.99-6.37.94-.24,1.9-.41,2.87-.55,1.2-.18,2.42.08,3.3.84.57.5.83,1.46,1.02,2.26.19.79.13,1.65.19,2.49Z"/>
    </g>
  </g>
</svg>