<?xml version="1.0" encoding="UTF-8"?>
<svg id="Capa_2" data-name="Capa 2" xmlns="http://www.w3.org/2000/svg" viewBox="0 0 570.27 192.98">
  <defs>
    <style>
      .cls-1 {
        fill: #0b51b7;
      }

      .cls-2 {
        fill: #2262ea;
      }
    </style>
  </defs>
  <g id="Capa_3" data-name="Capa 3">
    <g>
      <path class="cls-2" d="m258.98,75.35v11.75c0,2.65-1.41,4.88-4.24,6.67s-7.46,2.7-13.9,2.7-11.81-2.07-16.11-6.21c-4.3-4.14-6.45-9.56-6.45-16.25s2.14-12.12,6.42-16.29,9.42-6.24,15.42-6.24,10.57.94,13.7,2.82,4.72,3.65,4.77,5.29-.5,3.12-1.62,4.41c-1.12,1.29-2.23,1.94-3.31,1.94s-2.64-.52-4.69-1.56c-2.04-1.04-4.79-1.58-8.23-1.62-3.44-.04-6,1.01-7.65,3.16-1.66,2.15-2.49,4.85-2.49,8.09s.97,5.91,2.92,8.01c1.95,2.1,4.6,3.12,7.96,3.08,3.36-.04,5.04-1.35,5.04-3.92,0-.3-.04-.6-.13-.9h-1.99c-3.85,0-5.78-1.8-5.78-5.39s1.93-5.39,5.78-5.39h9.63c3.29,0,4.94,1.95,4.94,5.84Z"/>
      <path class="cls-2" d="m275.25,88.44l-1.22,3.27c-1.09,2.91-2.88,4.36-5.38,4.36s-4.28-.76-5.36-2.29c-1.08-1.53-1.62-2.9-1.62-4.12s.27-2.42.8-3.59l13.22-28.95c1.33-2.91,3.35-4.36,6.07-4.36s4.74,1.46,6.07,4.36l13.29,28.95c.56,1.2.83,2.41.83,3.63s-.52,2.59-1.57,4.11c-1.05,1.52-2.84,2.28-5.38,2.28s-4.35-1.46-5.44-4.36l-1.22-3.27h-13.09Zm9.31-10.27l-2.76-7.51-2.76,7.51h5.52Z"/>
      <path class="cls-2" d="m338.5,83.24c0,8.56-4.54,12.84-13.61,12.84h-13.86c-4.24,0-6.35-1.86-6.35-5.58v-32.16c0-3.72,2.12-5.58,6.35-5.58h12.9c8.64,0,12.96,3.44,12.96,10.33,0,4.54-1.73,7.68-5.2,9.43,4.54,2.18,6.8,5.76,6.8,10.72Zm-13.61-17.59c0-2.78-1.39-4.17-4.17-4.17h-3.34v8.34h3.47c2.7,0,4.04-1.39,4.04-4.17Zm.9,16.88c0-3.12-1.56-4.69-4.69-4.69h-3.72v9.37h3.85c3.04,0,4.56-1.56,4.56-4.69Z"/>
      <path class="cls-2" d="m367.87,77.66l6.35,8.34c.94,1.24,1.41,2.57,1.41,3.98s-.86,2.78-2.57,4.09-3.28,1.97-4.72,1.97-2.79-.87-4.08-2.6l-10.33-13.8v10.85c0,3.72-2.12,5.58-6.35,5.58s-6.35-1.86-6.35-5.58v-32.16c0-3.72,2.12-5.58,6.35-5.58h14.38c3.55,0,6.5,1.36,8.86,4.09,2.35,2.73,3.53,5.65,3.53,8.78,0,5.58-2.16,9.6-6.48,12.03Zm-13.93-16.17v9.88h3.66c3.59,0,5.39-1.65,5.39-4.94s-1.8-4.94-5.39-4.94h-3.66Z"/>
      <path class="cls-2" d="m391.07,90.49c0,3.72-2.12,5.58-6.35,5.58s-6.35-1.86-6.35-5.58v-32.16c0-3.72,2.12-5.58,6.35-5.58s6.35,1.86,6.35,5.58v32.16Z"/>
      <path class="cls-2" d="m400.63,96.08c-4.24,0-6.35-1.86-6.35-5.58v-32.16c0-3.72,2.12-5.58,6.35-5.58h15.4c3.29,0,4.94,1.7,4.94,5.1s-1.65,5.1-4.94,5.1h-9.05v6.23h7.77c3.29,0,4.94,1.71,4.94,5.13s-1.65,5.13-4.94,5.13h-7.77v6.42h9.05c3.29,0,4.94,1.7,4.94,5.1s-1.65,5.1-4.94,5.1h-15.4Z"/>
      <path class="cls-2" d="m446.84,96.08h-16.3c-4.24,0-6.35-1.86-6.35-5.58v-32.16c0-3.72,2.12-5.58,6.35-5.58s6.35,1.86,6.35,5.58v27.54h9.95c2.65,0,3.98,1.7,3.98,5.1s-1.33,5.1-3.98,5.1Z"/>
      <path class="cls-2" d="m467.13,88.44l-1.22,3.27c-1.09,2.91-2.88,4.36-5.38,4.36s-4.28-.76-5.36-2.29c-1.08-1.53-1.62-2.9-1.62-4.12s.27-2.42.8-3.59l13.22-28.95c1.33-2.91,3.35-4.36,6.07-4.36s4.74,1.46,6.07,4.36l13.29,28.95c.56,1.2.83,2.41.83,3.63s-.52,2.59-1.57,4.11c-1.05,1.52-2.84,2.28-5.38,2.28s-4.35-1.46-5.44-4.36l-1.22-3.27h-13.09Zm9.31-10.27l-2.76-7.51-2.76,7.51h5.52Z"/>
      <path class="cls-2" d="m533.65,66.1l8.92-10.72c1.46-1.75,3.42-2.63,5.91-2.63,4.24,0,6.35,1.86,6.35,5.58v32.16c0,3.72-2.12,5.58-6.35,5.58s-6.35-1.86-6.35-5.58v-17.71l-8.47,9.95-8.47-9.88v17.65c0,3.72-2.12,5.58-6.35,5.58s-6.35-1.86-6.35-5.58v-32.16c0-3.79,2.12-5.65,6.35-5.58,2.44.02,4.39.9,5.84,2.63l8.99,10.72Z"/>
      <path class="cls-2" d="m570.27,89.4c0,1.92-.58,3.52-1.73,4.8-1.16,1.27-2.69,1.91-4.61,1.91s-3.46-.63-4.62-1.88c-1.17-1.25-1.75-2.85-1.75-4.8s.58-3.56,1.75-4.83,2.71-1.91,4.62-1.91,3.45.64,4.61,1.91,1.73,2.87,1.73,4.8Z"/>
    </g>
    <g>
      <path class="cls-2" d="m221.27,134.49v-20.8h1.32v20.8h-1.32Zm0-19.51v-1.29h13.07v1.29h-13.07Zm0,10.62v-1.29h11.02v1.29h-11.02Z"/>
      <path class="cls-2" d="m237.39,134.49v-1.32h10.02v1.32h-10.02Zm.59-14.21v-1.32h3.97v1.32h-3.97Zm3.38,14.21v-15.53h1.08l.29,4.45v11.07h-1.38Zm1.38-6.68l-.91-4.86h1.03c.45-2.85,2.03-4.28,4.73-4.28,1.68,0,2.9.46,3.66,1.38s1.14,2.4,1.14,4.45h-1.41c0-1.58-.27-2.72-.82-3.43s-1.43-1.05-2.64-1.05c-1.61,0-2.81.68-3.6,2.03s-1.19,3.27-1.19,5.76Z"/>
      <path class="cls-2" d="m262.23,134.78c-2.03,0-3.61-.7-4.75-2.11s-1.7-3.39-1.7-5.95.57-4.55,1.7-5.96c1.13-1.4,2.71-2.1,4.75-2.1s3.63.7,4.75,2.1c1.13,1.4,1.69,3.39,1.69,5.96s-.56,4.54-1.69,5.95-2.71,2.11-4.75,2.11Zm0-1.35c1.6,0,2.84-.58,3.72-1.75s1.32-2.82,1.32-4.96-.44-3.79-1.32-4.96c-.88-1.17-2.12-1.75-3.72-1.75s-2.84.58-3.72,1.75c-.88,1.17-1.32,2.82-1.32,4.96s.44,3.79,1.32,4.96,2.12,1.75,3.72,1.75Z"/>
      <path class="cls-2" d="m273.83,134.49v-15.53h1.26l.12,3.28v12.25h-1.38Zm10.58,0v-10.17c0-1.38-.37-2.44-1.1-3.19-.73-.75-1.75-1.12-3.06-1.12-3.36,0-5.04,1.89-5.04,5.68l-.94-3.93h1.05c.28-1.04.82-1.82,1.62-2.34.8-.51,1.85-.77,3.17-.77,1.81,0,3.2.5,4.19,1.49s1.48,2.4,1.48,4.22v10.11h-1.38Z"/>
      <path class="cls-2" d="m289.98,120.28v-1.32h13.36v1.32h-13.36Zm4.76,6.88v-12.89h1.38v12.89h-1.38Zm5.46,7.62c-1.83,0-3.19-.52-4.1-1.57s-1.36-2.62-1.36-4.72v-2.49h1.38v2.49c0,1.65.36,2.89,1.09,3.71.73.83,1.82,1.24,3.29,1.24.61,0,1.17-.03,1.7-.08s1.05-.13,1.57-.23l.16,1.3c-.62.12-1.24.21-1.83.26s-1.23.09-1.89.09Z"/>
      <path class="cls-2" d="m307.99,124.76v-1.32h13.95v1.32h-13.95Z"/>
      <path class="cls-2" d="m334.05,134.78c-2.53,0-4.49-.72-5.87-2.17s-2.08-3.48-2.08-6.09.58-4.43,1.74-5.8,2.8-2.05,4.92-2.05c1.97,0,3.5.62,4.59,1.86s1.63,2.98,1.63,5.23c0,.55-.03.98-.09,1.29h-11.73v-1.32h10.42c0-1.82-.42-3.22-1.25-4.22s-2.01-1.49-3.54-1.49c-1.68,0-2.98.57-3.9,1.71s-1.38,2.75-1.38,4.82c0,2.18.6,3.87,1.81,5.08s2.9,1.81,5.09,1.81c.55,0,1.14-.04,1.79-.11.64-.07,1.25-.17,1.82-.3l.22,1.35c-.56.13-1.2.23-1.94.3-.74.07-1.48.11-2.23.11Z"/>
      <path class="cls-2" d="m344.15,134.49v-15.53h1.26l.12,3.28v12.25h-1.38Zm10.58,0v-10.17c0-1.38-.37-2.44-1.1-3.19-.73-.75-1.75-1.12-3.06-1.12-3.36,0-5.04,1.89-5.04,5.68l-.94-3.93h1.05c.28-1.04.82-1.82,1.62-2.34.8-.51,1.85-.77,3.17-.77,1.81,0,3.2.5,4.19,1.49s1.48,2.4,1.48,4.22v10.11h-1.38Z"/>
      <path class="cls-2" d="m366.87,134.78c-2.03,0-3.57-.67-4.62-2.01s-1.57-3.31-1.57-5.9.53-4.74,1.6-6.12,2.63-2.08,4.69-2.08c1.47,0,2.65.32,3.54.95s1.45,1.58,1.69,2.83h1.03l-.91,4.2c0-2.19-.44-3.84-1.31-4.96s-2.16-1.68-3.86-1.68-2.92.58-3.77,1.74c-.85,1.16-1.28,2.86-1.28,5.12s.43,3.78,1.29,4.89,2.12,1.67,3.79,1.67,2.97-.56,3.84-1.68c.87-1.12,1.3-2.77,1.3-4.94l1.05,4.01h-1.11c-.24,1.22-.8,2.19-1.67,2.89-.87.71-2.1,1.06-3.71,1.06Zm5.74-.15l-.31-4.07v-18.05h1.38v22.05l-1.07.07Z"/>
      <path class="cls-2" d="m396.32,134.49v-20.8h1.32v20.8h-1.32Zm1.11,0v-1.29h3.57c2.62,0,4.58-.73,5.87-2.21,1.3-1.47,1.95-3.67,1.95-6.61,0-3.14-.65-5.5-1.95-7.06s-3.26-2.34-5.87-2.34h-3.52l-.35-1.29h3.87c6.11,0,9.17,3.56,9.17,10.69,0,6.74-3.06,10.11-9.17,10.11h-3.57Z"/>
      <path class="cls-2" d="m421.94,134.78c-2.53,0-4.49-.72-5.87-2.17s-2.08-3.48-2.08-6.09.58-4.43,1.74-5.8,2.8-2.05,4.92-2.05c1.97,0,3.5.62,4.59,1.86s1.63,2.98,1.63,5.23c0,.55-.03.98-.09,1.29h-11.73v-1.32h10.42c0-1.82-.42-3.22-1.25-4.22s-2.01-1.49-3.54-1.49c-1.68,0-2.98.57-3.9,1.71s-1.38,2.75-1.38,4.82c0,2.18.6,3.87,1.81,5.08s2.9,1.81,5.09,1.81c.55,0,1.14-.04,1.79-.11.64-.07,1.25-.17,1.82-.3l.22,1.35c-.56.13-1.2.23-1.94.3-.74.07-1.48.11-2.23.11Z"/>
      <path class="cls-2" d="m437.05,134.49l-6.3-15.53h1.48l5.76,14.36h.12l5.7-14.36h1.48l-6.3,15.53h-1.93Z"/>
      <path class="cls-2" d="m457.1,134.78c-2.53,0-4.49-.72-5.87-2.17s-2.08-3.48-2.08-6.09.58-4.43,1.74-5.8,2.8-2.05,4.92-2.05c1.97,0,3.5.62,4.59,1.86s1.63,2.98,1.63,5.23c0,.55-.03.98-.09,1.29h-11.73v-1.32h10.42c0-1.82-.42-3.22-1.25-4.22s-2.01-1.49-3.54-1.49c-1.68,0-2.98.57-3.9,1.71s-1.38,2.75-1.38,4.82c0,2.18.6,3.87,1.81,5.08s2.9,1.81,5.09,1.81c.55,0,1.14-.04,1.79-.11.64-.07,1.25-.17,1.82-.3l.22,1.35c-.56.13-1.2.23-1.94.3-.74.07-1.48.11-2.23.11Z"/>
      <path class="cls-2" d="m466.17,113.83v-1.32h5.35v1.32h-5.35Zm10.34,20.95c-1.76,0-3.07-.45-3.95-1.36-.87-.9-1.31-2.26-1.31-4.06v-16.85h1.38v16.85c0,.91.15,1.66.45,2.26.3.6.74,1.05,1.34,1.35s1.34.45,2.24.45c.79,0,1.77-.14,2.94-.42l.16,1.3c-.56.17-1.09.29-1.6.36-.51.07-1.06.11-1.65.11Z"/>
      <path class="cls-2" d="m490.75,134.78c-2.03,0-3.61-.7-4.75-2.11s-1.7-3.39-1.7-5.95.57-4.55,1.7-5.96c1.13-1.4,2.71-2.1,4.75-2.1s3.62.7,4.75,2.1c1.13,1.4,1.69,3.39,1.69,5.96s-.56,4.54-1.69,5.95-2.71,2.11-4.75,2.11Zm0-1.35c1.6,0,2.84-.58,3.72-1.75s1.32-2.82,1.32-4.96-.44-3.79-1.32-4.96c-.88-1.17-2.12-1.75-3.72-1.75s-2.84.58-3.72,1.75c-.88,1.17-1.32,2.82-1.32,4.96s.44,3.79,1.32,4.96,2.12,1.75,3.72,1.75Z"/>
      <path class="cls-2" d="m502.35,141.23v-22.27h1.08l.29,3.72v18.54h-1.38Zm6.81-6.45c-1.57,0-2.79-.35-3.64-1.06-.85-.71-1.41-1.67-1.66-2.89h-1.19l1.05-4.01c0,2.18.43,3.83,1.3,4.94.87,1.12,2.15,1.68,3.84,1.68s2.94-.56,3.79-1.67,1.29-2.74,1.29-4.89c0-2.26-.43-3.96-1.28-5.12-.85-1.16-2.11-1.74-3.77-1.74s-2.99.56-3.86,1.68-1.31,2.77-1.31,4.96l-.91-4.2h1.03c.24-1.25.81-2.19,1.69-2.83s2.06-.95,3.54-.95c2.07,0,3.64.69,4.7,2.08s1.59,3.43,1.59,6.12-.52,4.57-1.57,5.9-2.59,2.01-4.63,2.01Z"/>
      <path class="cls-2" d="m527.41,134.78c-2.53,0-4.49-.72-5.87-2.17s-2.08-3.48-2.08-6.09.58-4.43,1.74-5.8,2.8-2.05,4.92-2.05c1.97,0,3.5.62,4.59,1.86s1.63,2.98,1.63,5.23c0,.55-.03.98-.09,1.29h-11.73v-1.32h10.42c0-1.82-.42-3.22-1.25-4.22s-2.01-1.49-3.54-1.49c-1.68,0-2.98.57-3.9,1.71s-1.38,2.75-1.38,4.82c0,2.18.6,3.87,1.81,5.08s2.9,1.81,5.09,1.81c.55,0,1.14-.04,1.79-.11.64-.07,1.25-.17,1.82-.3l.22,1.35c-.56.13-1.2.23-1.94.3-.74.07-1.48.11-2.23.11Z"/>
      <path class="cls-2" d="m536.22,134.49v-1.32h10.02v1.32h-10.02Zm.59-14.21v-1.32h3.97v1.32h-3.97Zm3.38,14.21v-15.53h1.08l.29,4.45v11.07h-1.38Zm1.38-6.68l-.91-4.86h1.03c.45-2.85,2.03-4.28,4.73-4.28,1.68,0,2.9.46,3.66,1.38s1.14,2.4,1.14,4.45h-1.41c0-1.58-.27-2.72-.82-3.43s-1.43-1.05-2.64-1.05c-1.61,0-2.81.68-3.6,2.03s-1.19,3.27-1.19,5.76Z"/>
    </g>
    <g>
      <path class="cls-1" d="m183.98,177.56l-25.62-35.51c-6.11,6.49-15.09,10.25-24.86,9.17-24.66-2.72-49.49-2.24-74.2.02-9.77.89-18.63-2.8-24.67-9.19,0,0,0,0,0,0h0l-21.68,39.75c-.49-.46-.97-.94-1.44-1.43,7.49,7.77,18.03,12.58,29.77,12.58,36.93-.02,73.86.01,110.79.04,15.28.01,28.66-8.48,35.67-20.98-1.1,1.95-2.35,3.81-3.74,5.55Z"/>
      <path class="cls-2" d="m192.86,41.24c-.02-11.27-4.06-20.96-10.2-27.44C173.25,4.37,162.77.04,151.78.04,114.77.03,77.75.02,40.74,0,18.4-.01-.01,18.4,0,40.76,0,56.36.01,71.97.02,87.57c0,15.68,0,31.36.02,47.04,0,3.92,0,7.84,0,11.76,0,5.35-.02,10.51,1.36,15.73,1.78,6.78,5.23,13.14,10.1,18.2.47.49.95.96,1.44,1.43,0,0,21.68-39.75,21.69-39.75-.31-.33-.61-.66-.93-1.03-6.83-7.94-7.18-17.13-7.19-27.06,0-11.41,0-22.83-.01-34.24,0-12.9,0-25.8-.01-38.7,0-16.22,13.35-29.58,29.56-29.57,26.85.02,53.7.02,80.56.03,7.97,0,15.58,3.14,22.41,9.98,4.45,4.71,7.39,11.74,7.4,19.91,0,23.9.02,47.79.04,71.69,0,9.98-.35,20.05-7.18,28-.29.34-.59.68-.9,1,0,0,25.62,35.51,25.62,35.51,0-.01,3.75-5.57,4.06-6.16,1.26-2.4,2.29-4.92,3.09-7.51,3.27-10.68,1.8-22.68,1.79-33.72,0-12.04,0-24.09-.01-36.13,0-17.58-.01-35.17-.04-52.75Z"/>
      <path class="cls-2" d="m124.47,83.17v16.34c0,3.69-1.96,6.79-5.89,9.29-3.93,2.5-10.37,3.75-19.33,3.75s-16.43-2.88-22.41-8.64c-5.98-5.76-8.97-13.3-8.97-22.61s2.98-16.87,8.93-22.66c5.95-5.79,13.1-8.68,21.45-8.68s14.7,1.31,19.06,3.93,6.57,5.07,6.63,7.37-.69,4.34-2.25,6.14c-1.56,1.8-3.1,2.7-4.6,2.7s-3.68-.72-6.52-2.17c-2.84-1.44-6.66-2.19-11.45-2.25s-8.34,1.41-10.65,4.4-3.46,6.74-3.46,11.25,1.35,8.22,4.06,11.14,6.4,4.35,11.07,4.29,7.01-1.87,7.01-5.45c0-.42-.06-.83-.18-1.25h-2.77c-5.36,0-8.04-2.5-8.04-7.5s2.68-7.5,8.04-7.5h13.39c4.58,0,6.87,2.71,6.87,8.12Z"/>
      <path class="cls-2" d="m135.77,120.05l-1.29-.06c-.37-.12-.73-.26-1.11-.35-.92-.24-1.41-.85-1.71-1.73-.57-1.68-.34-3.39-.23-5.09.06-.9.2-1.79.42-2.67.08-.33.4-.72.7-.87,1.04-.51,2.11-1,3.2-1.38,1.87-.64,2.93-1.75,3.19-3.84.87-6.83,3.16-13.23,6.19-19.39.72-1.46.73-3.18,0-4.65-2.81-5.72-5.02-11.63-6.13-17.92-.05-.3-.14-.61-.15-.91-.07-1.84-1.24-2.74-2.79-3.35-1.21-.48-2.41-1.01-3.6-1.55-.23-.11-.51-.33-.57-.56-.52-2.13-.81-4.29-.39-6.49.24-1.25.95-2.05,2.2-2.44,3.94-1.23,7.43-.25,10.68,2.06.7,1.23,1.52,2.41,2.09,3.7.87,1.97,1.05,4.13,1.31,6.25.78,6.43,2.32,12.62,6.02,18.07,2.25,3.32,2.12,7.67-.13,10.99-2.8,4.13-4.26,8.8-5.02,13.7-.41,2.63-.57,5.3-1.04,7.91-.28,1.54-.85,3.06-1.46,4.51-1.31,3.14-4.1,4.4-7.11,5.29-1.07.32-2.17.5-3.26.74Z"/>
      <path class="cls-2" d="m63.29,52.44c-.19,1.41-.35,2.83-.61,4.23-.06.33-.39.72-.69.86-1.33.62-2.73,1.1-4.06,1.73-1.11.52-2.02,1.26-2.19,2.63-.9,7.2-3.23,13.94-6.41,20.43-.68,1.38-.67,2.95,0,4.33,2.79,5.7,5.03,11.58,6.15,17.85.07.37.19.75.2,1.12.03,1.82,1.18,2.71,2.7,3.33,1.25.51,2.5,1.04,3.73,1.6.21.1.48.31.53.51.49,2.09.79,4.19.44,6.35-.33,2.08-1.88,2.67-3.6,2.96-3.34.56-6.37-.29-9.08-2.26-.53-.39-.92-1.02-1.27-1.6-1.42-2.32-1.97-4.92-2.26-7.58-.76-6.8-2.34-13.32-6.17-19.14-.7-1.06-1.14-2.29-1.63-3.47-.48-1.16-.49-2.39,0-3.55.53-1.27,1.04-2.57,1.78-3.71,2.85-4.42,4.39-9.3,5.16-14.45.39-2.61.62-5.24,1.03-7.84.16-1.02.56-2.01.9-2.99,1.33-3.78,4.39-5.43,7.99-6.37.94-.24,1.9-.41,2.87-.55,1.2-.18,2.42.08,3.3.84.57.5.83,1.46,1.02,2.26.19.79.13,1.65.19,2.49Z"/>
    </g>
  </g>
</svg>