<?xml version="1.0" encoding="UTF-8"?>
<!DOCTYPE svg PUBLIC "-//W3C//DTD SVG 1.1//EN" "http://www.w3.org/Graphics/SVG/1.1/DTD/svg11.dtd">
<svg xmlns="http://www.w3.org/2000/svg" version="1.1" width="3840px" height="2399px" style="shape-rendering:geometricPrecision; text-rendering:geometricPrecision; image-rendering:optimizeQuality; fill-rule:evenodd; clip-rule:evenodd" xmlns:xlink="http://www.w3.org/1999/xlink">
<g><path style="opacity:1" fill="#330000" d="M 2727.5,2398.5 C 2727.17,2398.5 2726.83,2398.5 2726.5,2398.5C 2726.17,2397.17 2725.83,2397.17 2725.5,2398.5C 2171.17,2398.5 1616.83,2398.5 1062.5,2398.5C 1061.12,2397.77 1059.62,2397.1 1058,2396.5C 951.674,2386.25 860.507,2342.08 784.5,2264C 716.316,2190.12 677.316,2105.12 667.5,2009C 666.877,2006.39 666.21,2003.89 665.5,2001.5C 664.167,1467.53 664.167,933.861 665.5,400.5C 666.21,398.107 666.877,395.607 667.5,393C 677.43,290.711 721.096,201.044 798.5,124C 873.051,54.3541 961.218,14.1874 1063,3.5C 1617.67,3.5 2172.33,3.5 2727,3.5C 2855.83,17.6326 2960.5,76.6326 3041,180.5C 3088.79,246.398 3116.45,320.064 3124,401.5C 3124.67,934.5 3124.67,1467.5 3124,2000.5C 3108.98,2137.4 3045.48,2245.57 2933.5,2325C 2872.78,2364.58 2807.62,2388.75 2738,2397.5C 2735.89,2397.42 2733.89,2397.09 2732,2396.5C 2730.38,2397.1 2728.88,2397.77 2727.5,2398.5 Z"/></g>
<g><path style="opacity:0.349" fill="#310000" d="M 665.5,400.5 C 664.833,399.167 664.833,399.167 665.5,400.5 Z"/></g>
<g><path style="opacity:1" fill="#763400" d="M 2400.5,534.5 C 2398.05,535.473 2395.39,535.806 2392.5,535.5C 2393.53,534.751 2394.7,534.085 2396,533.5C 2397.63,533.713 2399.13,534.046 2400.5,534.5 Z"/></g>
<g><path style="opacity:1" fill="#763400" d="M 2413.5,534.5 C 2413.5,534.833 2413.5,535.167 2413.5,535.5C 2409.83,534.167 2406.17,534.167 2402.5,535.5C 2401.83,535.5 2401.5,535.167 2401.5,534.5C 2405.4,533.209 2409.4,533.209 2413.5,534.5 Z"/></g>
<g><path style="opacity:1" fill="#763400" d="M 2424.5,535.5 C 2420.96,535.813 2417.62,535.479 2414.5,534.5C 2416.56,534.003 2418.73,533.67 2421,533.5C 2422.3,534.085 2423.47,534.751 2424.5,535.5 Z"/></g>
<g><path style="opacity:1" fill="#bd6900" d="M 2400.5,534.5 C 2400.83,534.5 2401.17,534.5 2401.5,534.5C 2401.5,535.167 2401.83,535.5 2402.5,535.5C 2399.44,536.201 2396.27,536.868 2393,537.5C 2391.32,536.807 2389.82,536.474 2388.5,536.5C 2388.5,536.167 2388.5,535.833 2388.5,535.5C 2389.83,535.5 2391.17,535.5 2392.5,535.5C 2395.39,535.806 2398.05,535.473 2400.5,534.5 Z"/></g>
<g><path style="opacity:1" fill="#b56300" d="M 2414.5,534.5 C 2417.62,535.479 2420.96,535.813 2424.5,535.5C 2425.7,534.595 2427.04,534.595 2428.5,535.5C 2428.5,535.833 2428.5,536.167 2428.5,536.5C 2423.44,537.272 2418.44,536.938 2413.5,535.5C 2413.5,535.167 2413.5,534.833 2413.5,534.5C 2413.83,533.167 2414.17,533.167 2414.5,534.5 Z"/></g>
<g><path style="opacity:1" fill="#853e00" d="M 2388.5,535.5 C 2388.5,535.833 2388.5,536.167 2388.5,536.5C 2385.86,536.553 2383.36,537.22 2381,538.5C 2379.93,538.472 2379.1,538.139 2378.5,537.5C 2381.58,535.819 2384.92,535.152 2388.5,535.5 Z"/></g>
<g><path style="opacity:1" fill="#fe9900" d="M 2413.5,535.5 C 2418.44,536.938 2423.44,537.272 2428.5,536.5C 2432.18,536.363 2435.68,537.029 2439,538.5C 2439.4,538.272 2439.57,537.938 2439.5,537.5C 2439.83,537.5 2440.17,537.5 2440.5,537.5C 2441.06,538.79 2442.06,539.623 2443.5,540C 2447.19,540.42 2450.86,540.92 2454.5,541.5C 2457.14,543.31 2460.14,544.31 2463.5,544.5C 2464.29,546.104 2465.62,546.771 2467.5,546.5C 2469.33,548.776 2471.66,550.609 2474.5,552C 2475.79,552.49 2477.13,552.657 2478.5,552.5C 2479.97,553.806 2481.3,555.306 2482.5,557C 2487.96,560.624 2493.29,564.457 2498.5,568.5C 2498.83,569.5 2499.5,570.167 2500.5,570.5C 2501.76,573.427 2503.76,575.761 2506.5,577.5C 2509.71,583.236 2513.21,588.903 2517,594.5C 2518.93,599.565 2521.43,604.232 2524.5,608.5C 2524.66,610.153 2525.33,611.486 2526.5,612.5C 2526.5,612.833 2526.5,613.167 2526.5,613.5C 2528.69,624.913 2531.03,636.247 2533.5,647.5C 2533.45,656.526 2533.45,665.859 2533.5,675.5C 2533.8,678.059 2533.47,680.393 2532.5,682.5C 2530.92,691.525 2528.92,700.858 2526.5,710.5C 2526.5,710.833 2526.5,711.167 2526.5,711.5C 2525.54,711.953 2524.71,712.619 2524,713.5C 2522.44,718.829 2520.11,723.829 2517,728.5C 2516.51,729.793 2516.34,731.127 2516.5,732.5C 2514.95,732.821 2514.29,733.821 2514.5,735.5C 2512.95,735.821 2512.29,736.821 2512.5,738.5C 2510.95,738.821 2510.29,739.821 2510.5,741.5C 2508.09,741.694 2507.09,743.027 2507.5,745.5C 2506.09,745.973 2505.43,746.973 2505.5,748.5C 2504.5,748.5 2503.5,748.5 2502.5,748.5C 2502.5,749.5 2502.5,750.5 2502.5,751.5C 2501.83,751.5 2501.5,751.833 2501.5,752.5C 2499.74,753.262 2498.74,754.596 2498.5,756.5C 2495.33,757.483 2493,759.483 2491.5,762.5C 2490.5,762.833 2489.83,763.5 2489.5,764.5C 2487.03,764.088 2485.69,765.088 2485.5,767.5C 2479.64,769.593 2474.64,772.926 2470.5,777.5C 2468.85,777.66 2467.51,778.326 2466.5,779.5C 2464.8,779.34 2463.13,779.506 2461.5,780C 2460.24,780.417 2459.58,781.25 2459.5,782.5C 2456.84,782.935 2454.51,783.935 2452.5,785.5C 2450.1,785.259 2448.1,785.926 2446.5,787.5C 2446.17,787.5 2445.83,787.5 2445.5,787.5C 2443.86,787.714 2442.36,787.38 2441,786.5C 2438.05,787.324 2435.55,788.657 2433.5,790.5C 2433.17,790.5 2432.83,790.5 2432.5,790.5C 2431.55,789.848 2430.38,789.514 2429,789.5C 2424.84,790.784 2420.67,791.784 2416.5,792.5C 2416.17,792.5 2415.83,792.5 2415.5,792.5C 2413.83,791.167 2412.17,791.167 2410.5,792.5C 2410.17,792.5 2409.83,792.5 2409.5,792.5C 2409.08,791.778 2408.42,791.278 2407.5,791C 2396.65,790.184 2386.32,789.351 2376.5,788.5C 2375.17,788.5 2373.83,788.5 2372.5,788.5C 2367.74,785.412 2362.41,783.579 2356.5,783C 2353.51,779.839 2349.84,778.339 2345.5,778.5C 2342.91,774.702 2339.24,772.702 2334.5,772.5C 2331.64,768.083 2327.64,765.083 2322.5,763.5C 2321.4,760.068 2319.07,758.068 2315.5,757.5C 2314.17,754.507 2312.17,752.173 2309.5,750.5C 2305.64,744.081 2301.3,738.081 2296.5,732.5C 2296.57,730.973 2295.91,729.973 2294.5,729.5C 2294.5,729.167 2294.5,728.833 2294.5,728.5C 2291.85,721.238 2288.85,714.238 2285.5,707.5C 2285.5,707.167 2285.5,706.833 2285.5,706.5C 2285.12,704.302 2284.46,702.302 2283.5,700.5C 2283.74,699.209 2283.4,698.209 2282.5,697.5C 2283,691.439 2282,685.773 2279.5,680.5C 2279.5,680.167 2279.5,679.833 2279.5,679.5C 2280.83,667.833 2280.83,656.167 2279.5,644.5C 2279.5,644.167 2279.5,643.833 2279.5,643.5C 2283.9,618.975 2293.9,596.975 2309.5,577.5C 2315.45,572.179 2321.45,566.846 2327.5,561.5C 2330.81,560.533 2333.14,558.533 2334.5,555.5C 2344.15,550.888 2353.99,546.555 2364,542.5C 2364.33,542.833 2364.67,543.167 2365,543.5C 2366.4,541.93 2367.9,540.596 2369.5,539.5C 2369.83,539.5 2370.17,539.5 2370.5,539.5C 2370.43,539.938 2370.6,540.272 2371,540.5C 2373.29,539.578 2375.46,538.578 2377.5,537.5C 2377.83,537.5 2378.17,537.5 2378.5,537.5C 2379.1,538.139 2379.93,538.472 2381,538.5C 2383.36,537.22 2385.86,536.553 2388.5,536.5C 2389.82,536.474 2391.32,536.807 2393,537.5C 2396.27,536.868 2399.44,536.201 2402.5,535.5C 2406.17,534.167 2409.83,534.167 2413.5,535.5 Z"/></g>
<g><path style="opacity:1" fill="#763400" d="M 2428.5,536.5 C 2428.5,536.167 2428.5,535.833 2428.5,535.5C 2432.46,535.251 2436.12,535.918 2439.5,537.5C 2439.57,537.938 2439.4,538.272 2439,538.5C 2435.68,537.029 2432.18,536.363 2428.5,536.5 Z"/></g>
<g><path style="opacity:1" fill="#763400" d="M 2377.5,537.5 C 2375.46,538.578 2373.29,539.578 2371,540.5C 2370.6,540.272 2370.43,539.938 2370.5,539.5C 2372.44,537.837 2374.77,537.171 2377.5,537.5 Z"/></g>
<g><path style="opacity:1" fill="#9a4e00" d="M 2440.5,537.5 C 2445.44,538.214 2450.11,539.547 2454.5,541.5C 2450.86,540.92 2447.19,540.42 2443.5,540C 2442.06,539.623 2441.06,538.79 2440.5,537.5 Z"/></g>
<g><path style="opacity:1" fill="#763400" d="M 2454.5,541.5 C 2457.86,541.69 2460.86,542.69 2463.5,544.5C 2460.14,544.31 2457.14,543.31 2454.5,541.5 Z"/></g>
<g><path style="opacity:1" fill="#763400" d="M 2463.5,544.5 C 2465.15,544.66 2466.49,545.326 2467.5,546.5C 2465.62,546.771 2464.29,546.104 2463.5,544.5 Z"/></g>
<g><path style="opacity:1" fill="#974c00" d="M 2369.5,539.5 C 2367.9,540.596 2366.4,541.93 2365,543.5C 2364.67,543.167 2364.33,542.833 2364,542.5C 2353.99,546.555 2344.15,550.888 2334.5,555.5C 2345.05,547.866 2356.72,542.533 2369.5,539.5 Z"/></g>
<g><path style="opacity:1" fill="#9e5100" d="M 2467.5,546.5 C 2471.66,547.742 2475.32,549.742 2478.5,552.5C 2477.13,552.657 2475.79,552.49 2474.5,552C 2471.66,550.609 2469.33,548.776 2467.5,546.5 Z"/></g>
<g><path style="opacity:1" fill="#994e00" d="M 2478.5,552.5 C 2486.34,556.413 2493.01,561.747 2498.5,568.5C 2493.29,564.457 2487.96,560.624 2482.5,557C 2481.3,555.306 2479.97,553.806 2478.5,552.5 Z"/></g>
<g><path style="opacity:1" fill="#a05300" d="M 2334.5,555.5 C 2333.14,558.533 2330.81,560.533 2327.5,561.5C 2321.45,566.846 2315.45,572.179 2309.5,577.5C 2316.27,568.393 2324.61,561.059 2334.5,555.5 Z"/></g>
<g><path style="opacity:1" fill="#843e00" d="M 2500.5,570.5 C 2503.24,572.239 2505.24,574.573 2506.5,577.5C 2503.76,575.761 2501.76,573.427 2500.5,570.5 Z"/></g>
<g><path style="opacity:1" fill="#9e5200" d="M 2506.5,577.5 C 2511.91,583.097 2516.41,589.43 2520,596.5C 2522.01,600.359 2523.51,604.359 2524.5,608.5C 2521.43,604.232 2518.93,599.565 2517,594.5C 2513.21,588.903 2509.71,583.236 2506.5,577.5 Z"/></g>
<g><path style="opacity:1" fill="#763400" d="M 2524.5,608.5 C 2526.1,609.287 2526.77,610.62 2526.5,612.5C 2525.33,611.486 2524.66,610.153 2524.5,608.5 Z"/></g>
<g><path style="opacity:1" fill="#a25400" d="M 2309.5,577.5 C 2293.9,596.975 2283.9,618.975 2279.5,643.5C 2281.64,622.568 2288.8,603.568 2301,586.5C 2303.41,582.926 2306.25,579.926 2309.5,577.5 Z"/></g>
<g><path style="opacity:1" fill="#763400" d="M 1798.5,616.5 C 1797.83,616.5 1797.5,616.833 1797.5,617.5C 1707.89,616.773 1618.39,616.44 1529,616.5C 1527.89,617.305 1526.72,617.972 1525.5,618.5C 1525.17,618.5 1524.83,618.5 1524.5,618.5C 1525.06,617.21 1526.06,616.377 1527.5,616C 1618,615.168 1708.33,615.334 1798.5,616.5 Z"/></g>
<g><path style="opacity:1" fill="#fe9900" d="M 1797.5,617.5 C 1803.32,618.983 1807.32,622.65 1809.5,628.5C 1809.5,628.833 1809.5,629.167 1809.5,629.5C 1812.51,641.856 1816.68,653.856 1822,665.5C 1823.14,672.443 1825.64,678.776 1829.5,684.5C 1829.58,690.961 1831.58,696.627 1835.5,701.5C 1835.34,703.527 1835.5,705.527 1836,707.5C 1837.05,710.859 1838.55,713.859 1840.5,716.5C 1840.48,720.787 1841.81,724.453 1844.5,727.5C 1844.85,729.541 1844.85,731.374 1844.5,733C 1846.54,736.929 1848.54,740.762 1850.5,744.5C 1850.26,746.898 1850.93,748.898 1852.5,750.5C 1852.66,752.153 1853.33,753.486 1854.5,754.5C 1854.5,754.833 1854.5,755.167 1854.5,755.5C 1853.96,755.56 1853.62,755.893 1853.5,756.5C 1854.52,757.901 1855.52,759.235 1856.5,760.5C 1856.5,760.833 1856.5,761.167 1856.5,761.5C 1863.17,782.794 1870.34,804.127 1878,825.5C 1878.38,826.056 1878.88,826.389 1879.5,826.5C 1880.35,831.933 1882.02,837.099 1884.5,842C 1883.74,843.364 1884.24,844.531 1886,845.5C 1885.91,849.122 1887.08,852.122 1889.5,854.5C 1890.36,859.228 1891.53,863.895 1893,868.5C 1903.55,896.596 1913.38,924.763 1922.5,953C 1924.47,954.5 1925.8,956.333 1926.5,958.5C 1926.78,960.877 1926.78,963.044 1926.5,965C 1928.65,968.455 1930.65,971.955 1932.5,975.5C 1934.04,982.284 1935.87,988.95 1938,995.5C 1939.13,997.339 1939.96,999.339 1940.5,1001.5C 1940.96,1002.3 1941.62,1002.63 1942.5,1002.5C 1942.5,1002.83 1942.5,1003.17 1942.5,1003.5C 1941.9,1003.74 1941.57,1004.24 1941.5,1005C 1947.05,1020.4 1952.55,1035.9 1958,1051.5C 1958.72,1053.88 1959.88,1055.88 1961.5,1057.5C 1962.15,1063.76 1964.15,1069.43 1967.5,1074.5C 1967.17,1077.49 1968.17,1079.82 1970.5,1081.5C 1970.23,1083.1 1970.57,1084.43 1971.5,1085.5C 1971.85,1087.54 1971.85,1089.37 1971.5,1091C 1974.01,1095.57 1975.85,1100.41 1977,1105.5C 1978.01,1108.2 1979.51,1110.53 1981.5,1112.5C 1981.5,1112.83 1981.5,1113.17 1981.5,1113.5C 1980.9,1113.74 1980.57,1114.24 1980.5,1115C 1983.57,1123.11 1986.4,1131.27 1989,1139.5C 1990.67,1144.17 1992.83,1148.5 1995.5,1152.5C 1995.5,1152.83 1995.5,1153.17 1995.5,1153.5C 1997.81,1164.43 2001.48,1174.77 2006.5,1184.5C 2006.17,1187.49 2007.17,1189.82 2009.5,1191.5C 2009.23,1193.1 2009.57,1194.43 2010.5,1195.5C 2010.85,1197.54 2010.85,1199.37 2010.5,1201C 2012.54,1204.93 2014.54,1208.76 2016.5,1212.5C 2019.87,1224.96 2023.7,1237.3 2028,1249.5C 2029.67,1254.17 2031.83,1258.5 2034.5,1262.5C 2034.5,1262.83 2034.5,1263.17 2034.5,1263.5C 2034.31,1266.81 2035.31,1269.48 2037.5,1271.5C 2039.03,1279.61 2041.37,1287.11 2044.5,1294C 2044.17,1294.33 2043.83,1294.67 2043.5,1295C 2045.43,1298.58 2047.43,1302.08 2049.5,1305.5C 2049.85,1307.54 2049.85,1309.37 2049.5,1311C 2051.28,1315.03 2053.28,1318.87 2055.5,1322.5C 2055.26,1324.9 2055.93,1326.9 2057.5,1328.5C 2058.1,1331.13 2058.6,1333.79 2059,1336.5C 2063,1347.83 2067,1359.17 2071,1370.5C 2072.36,1374.56 2074.2,1378.23 2076.5,1381.5C 2078.49,1390.96 2081.49,1400.13 2085.5,1409C 2085.17,1409.33 2084.83,1409.67 2084.5,1410C 2087.02,1415.2 2089.35,1420.54 2091.5,1426C 2091.17,1426.33 2090.83,1426.67 2090.5,1427C 2091.75,1428.98 2093.08,1430.81 2094.5,1432.5C 2095.04,1437.32 2096.21,1441.99 2098,1446.5C 2106.91,1470.61 2115.74,1494.78 2124.5,1519C 2124.17,1519.33 2123.83,1519.67 2123.5,1520C 2124.9,1522.74 2126.57,1525.24 2128.5,1527.5C 2128.15,1530.6 2128.82,1533.44 2130.5,1536C 2130.17,1536.33 2129.83,1536.67 2129.5,1537C 2130.75,1538.98 2132.08,1540.81 2133.5,1542.5C 2133.17,1545.49 2134.17,1547.82 2136.5,1549.5C 2136.23,1551.1 2136.57,1552.43 2137.5,1553.5C 2137.85,1555.54 2137.85,1557.37 2137.5,1559C 2145,1578.01 2152,1597.18 2158.5,1616.5C 2159.17,1618.16 2160.17,1619.49 2161.5,1620.5C 2161.5,1620.83 2161.5,1621.17 2161.5,1621.5C 2161.65,1626.83 2163.32,1631.5 2166.5,1635.5C 2166.07,1639.46 2167.07,1642.96 2169.5,1646C 2169.17,1646.33 2168.83,1646.67 2168.5,1647C 2169.9,1649.74 2171.57,1652.24 2173.5,1654.5C 2173.12,1656.7 2173.79,1658.36 2175.5,1659.5C 2175.23,1661.1 2175.57,1662.43 2176.5,1663.5C 2176.85,1665.54 2176.85,1667.37 2176.5,1669C 2178.54,1672.93 2180.54,1676.76 2182.5,1680.5C 2182.5,1680.83 2182.5,1681.17 2182.5,1681.5C 2181.52,1684.62 2181.19,1687.96 2181.5,1691.5C 2181.5,1691.83 2181.5,1692.17 2181.5,1692.5C 2178.67,1692.96 2176,1693.63 2173.5,1694.5C 2173.17,1694.5 2172.83,1694.5 2172.5,1694.5C 2100.43,1693.88 2028.1,1693.88 1955.5,1694.5C 1955.17,1694.5 1954.83,1694.5 1954.5,1694.5C 1951.46,1693.66 1948.46,1692.66 1945.5,1691.5C 1941.82,1685.28 1939.32,1678.61 1938,1671.5C 1937.29,1670.62 1936.46,1669.95 1935.5,1669.5C 1935.5,1669.17 1935.5,1668.83 1935.5,1668.5C 1935.2,1666.6 1934.54,1664.93 1933.5,1663.5C 1933.5,1663.17 1933.5,1662.83 1933.5,1662.5C 1929.18,1648.24 1924.68,1633.9 1920,1619.5C 1919.58,1618.24 1918.75,1617.58 1917.5,1617.5C 1917.5,1617.17 1917.5,1616.83 1917.5,1616.5C 1916.02,1609.55 1914.02,1602.72 1911.5,1596C 1911.16,1594.97 1910.5,1594.47 1909.5,1594.5C 1909.97,1591.92 1909.31,1589.92 1907.5,1588.5C 1907.77,1586.9 1907.43,1585.57 1906.5,1584.5C 1904.53,1575.64 1902.03,1566.98 1899,1558.5C 1898.08,1555.44 1896.58,1552.78 1894.5,1550.5C 1894.5,1550.17 1894.5,1549.83 1894.5,1549.5C 1887.37,1525.21 1879.37,1501.04 1870.5,1477C 1870.16,1475.97 1869.5,1475.47 1868.5,1475.5C 1868.78,1470.77 1867.44,1466.77 1864.5,1463.5C 1863.57,1456.1 1861.57,1449.1 1858.5,1442.5C 1858.59,1441.5 1858.25,1440.67 1857.5,1440C 1730.17,1439.5 1602.83,1439.33 1475.5,1439.5C 1475.5,1440.5 1475.5,1441.5 1475.5,1442.5C 1472.86,1445.19 1471.86,1448.53 1472.5,1452.5C 1470.75,1455.15 1469.75,1458.15 1469.5,1461.5C 1466.17,1466.2 1464.5,1471.53 1464.5,1477.5C 1462.57,1481.21 1461.23,1485.21 1460.5,1489.5C 1459.62,1489.37 1458.96,1489.7 1458.5,1490.5C 1456.08,1496.95 1454.41,1503.62 1453.5,1510.5C 1449.74,1518.15 1446.58,1526.15 1444,1534.5C 1440.92,1543.73 1438.42,1553.07 1436.5,1562.5C 1436.5,1562.83 1436.5,1563.17 1436.5,1563.5C 1435.46,1564.93 1434.8,1566.6 1434.5,1568.5C 1434.5,1568.83 1434.5,1569.17 1434.5,1569.5C 1431.63,1574.45 1429.96,1579.78 1429.5,1585.5C 1427.9,1587.85 1426.9,1590.51 1426.5,1593.5C 1424.68,1596.84 1423.68,1600.51 1423.5,1604.5C 1421.72,1605.99 1421.05,1607.99 1421.5,1610.5C 1419.9,1612.85 1418.9,1615.51 1418.5,1618.5C 1411.19,1635.14 1405.53,1652.48 1401.5,1670.5C 1401.5,1670.83 1401.5,1671.17 1401.5,1671.5C 1400.46,1672.93 1399.8,1674.6 1399.5,1676.5C 1399.5,1676.83 1399.5,1677.17 1399.5,1677.5C 1398.26,1679.21 1397.59,1681.21 1397.5,1683.5C 1395.9,1684.29 1395.23,1685.62 1395.5,1687.5C 1392.86,1688.14 1391.19,1689.81 1390.5,1692.5C 1387.57,1692.85 1384.74,1693.52 1382,1694.5C 1316.07,1694.46 1250.23,1694.46 1184.5,1694.5C 1184.17,1694.5 1183.83,1694.5 1183.5,1694.5C 1180.88,1693.97 1178.38,1692.97 1176,1691.5C 1174.57,1687.59 1174.23,1683.59 1175,1679.5C 1180.61,1662.51 1186.11,1645.51 1191.5,1628.5C 1191.5,1628.17 1191.5,1627.83 1191.5,1627.5C 1196.53,1617.74 1200.2,1607.4 1202.5,1596.5C 1202.5,1596.17 1202.5,1595.83 1202.5,1595.5C 1203.31,1594.57 1204.15,1593.57 1205,1592.5C 1214.16,1566.9 1222.66,1541.23 1230.5,1515.5C 1232.49,1512.84 1233.99,1509.84 1235,1506.5C 1245.82,1475.05 1256.82,1443.72 1268,1412.5C 1269.8,1407.7 1270.97,1402.7 1271.5,1397.5C 1275.25,1390.18 1278.25,1382.51 1280.5,1374.5C 1281.53,1370.39 1282.86,1366.39 1284.5,1362.5C 1301.38,1313.77 1318.55,1265.1 1336,1216.5C 1336.82,1213.88 1337.32,1211.22 1337.5,1208.5C 1337.5,1208.17 1337.5,1207.83 1337.5,1207.5C 1338.79,1206.94 1339.62,1205.94 1340,1204.5C 1342.08,1196.92 1344.75,1189.59 1348,1182.5C 1361.06,1142.99 1374.73,1103.66 1389,1064.5C 1390.8,1059.7 1391.97,1054.7 1392.5,1049.5C 1397.76,1039.45 1401.59,1028.78 1404,1017.5C 1411.14,1000.92 1416.97,983.924 1421.5,966.5C 1421.5,966.167 1421.5,965.833 1421.5,965.5C 1426.21,957.067 1429.54,948.067 1431.5,938.5C 1431.5,937.833 1431.5,937.167 1431.5,936.5C 1433.75,934.346 1435.25,931.679 1436,928.5C 1439.19,920.349 1441.69,912.015 1443.5,903.5C 1443.5,903.167 1443.5,902.833 1443.5,902.5C 1444.54,901.07 1445.2,899.403 1445.5,897.5C 1452.54,881.707 1458.21,865.373 1462.5,848.5C 1462.5,848.167 1462.5,847.833 1462.5,847.5C 1464.94,843.396 1467.1,839.063 1469,834.5C 1473.67,820.143 1478.17,805.81 1482.5,791.5C 1482.5,791.167 1482.5,790.833 1482.5,790.5C 1484.58,787.199 1485.92,783.532 1486.5,779.5C 1489.14,776.808 1490.14,773.475 1489.5,769.5C 1491.04,767.43 1492.38,765.097 1493.5,762.5C 1501.75,740.82 1508.75,718.82 1514.5,696.5C 1515.97,694.883 1516.64,692.883 1516.5,690.5C 1516.49,688.955 1516.16,687.622 1515.5,686.5C 1515.5,686.167 1515.5,685.833 1515.5,685.5C 1516.93,685.119 1517.76,684.119 1518,682.5C 1518.81,678.973 1518.64,675.64 1517.5,672.5C 1517.5,672.167 1517.5,671.833 1517.5,671.5C 1519.12,670.411 1519.95,668.744 1520,666.5C 1520.82,661.648 1520.65,656.981 1519.5,652.5C 1519.5,652.167 1519.5,651.833 1519.5,651.5C 1520.22,651.082 1520.72,650.416 1521,649.5C 1521.19,644.25 1521.69,639.083 1522.5,634C 1520.94,628.607 1521.94,623.441 1525.5,618.5C 1526.72,617.972 1527.89,617.305 1529,616.5C 1618.39,616.44 1707.89,616.773 1797.5,617.5 Z"/></g>
<g><path style="opacity:1" fill="#a05300" d="M 1798.5,616.5 C 1805.64,617.303 1809.3,621.303 1809.5,628.5C 1807.32,622.65 1803.32,618.983 1797.5,617.5C 1797.5,616.833 1797.83,616.5 1798.5,616.5 Z"/></g>
<g><path style="opacity:1" fill="#a75800" d="M 1524.5,618.5 C 1524.83,618.5 1525.17,618.5 1525.5,618.5C 1521.94,623.441 1520.94,628.607 1522.5,634C 1521.69,639.083 1521.19,644.25 1521,649.5C 1520.72,650.416 1520.22,651.082 1519.5,651.5C 1519.91,641.828 1519.91,633.161 1519.5,625.5C 1520.45,622.57 1522.12,620.237 1524.5,618.5 Z"/></g>
<g><path style="opacity:1" fill="#9e5200" d="M 2526.5,613.5 C 2531.29,624.195 2533.96,635.528 2534.5,647.5C 2534.17,647.5 2533.83,647.5 2533.5,647.5C 2531.03,636.247 2528.69,624.913 2526.5,613.5 Z"/></g>
<g><path style="opacity:1" fill="#9e5100" d="M 1809.5,629.5 C 1810.12,629.611 1810.62,629.944 1811,630.5C 1816.85,648.531 1823.01,666.531 1829.5,684.5C 1825.64,678.776 1823.14,672.443 1822,665.5C 1816.68,653.856 1812.51,641.856 1809.5,629.5 Z"/></g>
<g><path style="opacity:1" fill="#9c5000" d="M 2279.5,644.5 C 2280.83,656.167 2280.83,667.833 2279.5,679.5C 2279.49,677.457 2278.83,675.29 2277.5,673C 2278.24,665.401 2278.24,658.068 2277.5,651C 2278.87,648.687 2279.54,646.521 2279.5,644.5 Z"/></g>
<g><path style="opacity:1" fill="#be6a00" d="M 2533.5,647.5 C 2533.83,647.5 2534.17,647.5 2534.5,647.5C 2534.5,656.833 2534.5,666.167 2534.5,675.5C 2534.17,675.5 2533.83,675.5 2533.5,675.5C 2533.45,665.859 2533.45,656.526 2533.5,647.5 Z"/></g>
<g><path style="opacity:1" fill="#a65800" d="M 1519.5,652.5 C 1520.65,656.981 1520.82,661.648 1520,666.5C 1519.95,668.744 1519.12,670.411 1517.5,671.5C 1517.83,665.408 1518.49,659.075 1519.5,652.5 Z"/></g>
<g><path style="opacity:1" fill="#a75900" d="M 1517.5,672.5 C 1518.64,675.64 1518.81,678.973 1518,682.5C 1517.76,684.119 1516.93,685.119 1515.5,685.5C 1516.17,681.167 1516.83,676.833 1517.5,672.5 Z"/></g>
<g><path style="opacity:1" fill="#763400" d="M 2533.5,675.5 C 2533.83,675.5 2534.17,675.5 2534.5,675.5C 2534.84,680.122 2534.18,684.455 2532.5,688.5C 2532.5,686.5 2532.5,684.5 2532.5,682.5C 2533.47,680.393 2533.8,678.059 2533.5,675.5 Z"/></g>
<g><path style="opacity:1" fill="#994e00" d="M 2279.5,680.5 C 2282,685.773 2283,691.439 2282.5,697.5C 2281.87,694.638 2280.87,691.804 2279.5,689C 2279.7,686.379 2279.7,683.545 2279.5,680.5 Z"/></g>
<g><path style="opacity:1" fill="#bb6800" d="M 1515.5,686.5 C 1516.16,687.622 1516.49,688.955 1516.5,690.5C 1516.64,692.883 1515.97,694.883 1514.5,696.5C 1514.99,694.194 1515.33,691.861 1515.5,689.5C 1515.5,688.5 1515.5,687.5 1515.5,686.5 Z"/></g>
<g><path style="opacity:1" fill="#9e5100" d="M 1829.5,684.5 C 1831.87,689.953 1833.87,695.619 1835.5,701.5C 1831.58,696.627 1829.58,690.961 1829.5,684.5 Z"/></g>
<g><path style="opacity:1" fill="#763400" d="M 2282.5,697.5 C 2283.4,698.209 2283.74,699.209 2283.5,700.5C 2281.52,699.895 2281.19,698.895 2282.5,697.5 Z"/></g>
<g><path style="opacity:1" fill="#a35500" d="M 2532.5,682.5 C 2532.5,684.5 2532.5,686.5 2532.5,688.5C 2531.58,695.595 2530.08,702.595 2528,709.5C 2527.62,710.056 2527.12,710.389 2526.5,710.5C 2528.92,700.858 2530.92,691.525 2532.5,682.5 Z"/></g>
<g><path style="opacity:1" fill="#763400" d="M 2283.5,700.5 C 2284.46,702.302 2285.12,704.302 2285.5,706.5C 2283.72,705.01 2283.05,703.01 2283.5,700.5 Z"/></g>
<g><path style="opacity:1" fill="#a05300" d="M 1515.5,689.5 C 1515.33,691.861 1514.99,694.194 1514.5,696.5C 1508.75,718.82 1501.75,740.82 1493.5,762.5C 1492.38,765.097 1491.04,767.43 1489.5,769.5C 1496.55,749.641 1503.22,729.974 1509.5,710.5C 1509.29,709.914 1508.96,709.414 1508.5,709C 1511.58,702.695 1513.91,696.195 1515.5,689.5 Z"/></g>
<g><path style="opacity:1" fill="#9b4f00" d="M 1835.5,701.5 C 1837.74,706.233 1839.41,711.233 1840.5,716.5C 1838.55,713.859 1837.05,710.859 1836,707.5C 1835.5,705.527 1835.34,703.527 1835.5,701.5 Z"/></g>
<g><path style="opacity:1" fill="#9c5000" d="M 2285.5,707.5 C 2288.85,714.238 2291.85,721.238 2294.5,728.5C 2290.17,722.169 2287.17,715.169 2285.5,707.5 Z"/></g>
<g><path style="opacity:1" fill="#a75800" d="M 2526.5,711.5 C 2524.31,719.069 2520.98,726.069 2516.5,732.5C 2516.34,731.127 2516.51,729.793 2517,728.5C 2520.11,723.829 2522.44,718.829 2524,713.5C 2524.71,712.619 2525.54,711.953 2526.5,711.5 Z"/></g>
<g><path style="opacity:1" fill="#a15400" d="M 1840.5,716.5 C 1842.64,719.8 1843.98,723.467 1844.5,727.5C 1841.81,724.453 1840.48,720.787 1840.5,716.5 Z"/></g>
<g><path style="opacity:1" fill="#763400" d="M 2294.5,729.5 C 2295.91,729.973 2296.57,730.973 2296.5,732.5C 2295.09,732.027 2294.43,731.027 2294.5,729.5 Z"/></g>
<g><path style="opacity:1" fill="#8b4300" d="M 2516.5,732.5 C 2516.57,734.027 2515.91,735.027 2514.5,735.5C 2514.29,733.821 2514.95,732.821 2516.5,732.5 Z"/></g>
<g><path style="opacity:1" fill="#a65700" d="M 2296.5,732.5 C 2301.3,738.081 2305.64,744.081 2309.5,750.5C 2303.71,745.607 2299.38,739.607 2296.5,732.5 Z"/></g>
<g><path style="opacity:1" fill="#8b4300" d="M 2514.5,735.5 C 2514.57,737.027 2513.91,738.027 2512.5,738.5C 2512.29,736.821 2512.95,735.821 2514.5,735.5 Z"/></g>
<g><path style="opacity:1" fill="#9e5100" d="M 1844.5,727.5 C 1847.55,732.667 1849.55,738.334 1850.5,744.5C 1848.54,740.762 1846.54,736.929 1844.5,733C 1844.85,731.374 1844.85,729.541 1844.5,727.5 Z"/></g>
<g><path style="opacity:1" fill="#8b4300" d="M 2512.5,738.5 C 2512.57,740.027 2511.91,741.027 2510.5,741.5C 2510.29,739.821 2510.95,738.821 2512.5,738.5 Z"/></g>
<g><path style="opacity:1" fill="#a15300" d="M 2510.5,741.5 C 2510.26,743.404 2509.26,744.738 2507.5,745.5C 2507.09,743.027 2508.09,741.694 2510.5,741.5 Z"/></g>
<g><path style="opacity:1" fill="#763400" d="M 2507.5,745.5 C 2507.57,747.027 2506.91,748.027 2505.5,748.5C 2505.43,746.973 2506.09,745.973 2507.5,745.5 Z"/></g>
<g><path style="opacity:1" fill="#874000" d="M 1850.5,744.5 C 1852.07,746.102 1852.74,748.102 1852.5,750.5C 1850.93,748.898 1850.26,746.898 1850.5,744.5 Z"/></g>
<g><path style="opacity:1" fill="#a15300" d="M 2505.5,748.5 C 2504.83,749.833 2503.83,750.833 2502.5,751.5C 2502.5,750.5 2502.5,749.5 2502.5,748.5C 2503.5,748.5 2504.5,748.5 2505.5,748.5 Z"/></g>
<g><path style="opacity:1" fill="#763400" d="M 1852.5,750.5 C 1854.1,751.287 1854.77,752.62 1854.5,754.5C 1853.33,753.486 1852.66,752.153 1852.5,750.5 Z"/></g>
<g><path style="opacity:1" fill="#9a4e00" d="M 2309.5,750.5 C 2312.17,752.173 2314.17,754.507 2315.5,757.5C 2314.5,757.586 2313.67,757.252 2313,756.5C 2311.58,754.595 2310.41,752.595 2309.5,750.5 Z"/></g>
<g><path style="opacity:1" fill="#763400" d="M 2501.5,752.5 C 2501.26,754.404 2500.26,755.738 2498.5,756.5C 2498.74,754.596 2499.74,753.262 2501.5,752.5 Z"/></g>
<g><path style="opacity:1" fill="#813c00" d="M 1854.5,755.5 C 1855.94,756.82 1856.61,758.486 1856.5,760.5C 1855.52,759.235 1854.52,757.901 1853.5,756.5C 1853.62,755.893 1853.96,755.56 1854.5,755.5 Z"/></g>
<g><path style="opacity:1" fill="#a65700" d="M 2315.5,757.5 C 2319.07,758.068 2321.4,760.068 2322.5,763.5C 2320.01,761.745 2317.68,759.745 2315.5,757.5 Z"/></g>
<g><path style="opacity:1" fill="#833d00" d="M 2498.5,756.5 C 2496.76,759.243 2494.43,761.243 2491.5,762.5C 2493,759.483 2495.33,757.483 2498.5,756.5 Z"/></g>
<g><path style="opacity:1" fill="#a15300" d="M 2489.5,764.5 C 2488.74,766.262 2487.4,767.262 2485.5,767.5C 2485.69,765.088 2487.03,764.088 2489.5,764.5 Z"/></g>
<g><path style="opacity:1" fill="#9b4f00" d="M 2322.5,763.5 C 2327.64,765.083 2331.64,768.083 2334.5,772.5C 2330.13,769.984 2326.13,766.984 2322.5,763.5 Z"/></g>
<g><path style="opacity:1" fill="#a15400" d="M 2485.5,767.5 C 2481.05,771.61 2476.05,774.944 2470.5,777.5C 2474.64,772.926 2479.64,769.593 2485.5,767.5 Z"/></g>
<g><path style="opacity:1" fill="#984d00" d="M 1489.5,769.5 C 1490.14,773.475 1489.14,776.808 1486.5,779.5C 1486.98,775.916 1487.98,772.583 1489.5,769.5 Z"/></g>
<g><path style="opacity:1" fill="#a15300" d="M 2334.5,772.5 C 2339.24,772.702 2342.91,774.702 2345.5,778.5C 2341.71,776.77 2338.04,774.77 2334.5,772.5 Z"/></g>
<g><path style="opacity:1" fill="#9c5000" d="M 2345.5,778.5 C 2349.84,778.339 2353.51,779.839 2356.5,783C 2362.41,783.579 2367.74,785.412 2372.5,788.5C 2362.68,787.119 2353.68,783.785 2345.5,778.5 Z"/></g>
<g><path style="opacity:1" fill="#763400" d="M 1486.5,779.5 C 1485.92,783.532 1484.58,787.199 1482.5,790.5C 1483.02,787.11 1483.86,783.777 1485,780.5C 1485.38,779.944 1485.88,779.611 1486.5,779.5 Z"/></g>
<g><path style="opacity:1" fill="#9e5200" d="M 2466.5,779.5 C 2464.57,781.293 2462.24,782.293 2459.5,782.5C 2459.58,781.25 2460.24,780.417 2461.5,780C 2463.13,779.506 2464.8,779.34 2466.5,779.5 Z"/></g>
<g><path style="opacity:1" fill="#763400" d="M 2459.5,782.5 C 2457.68,784.448 2455.35,785.448 2452.5,785.5C 2454.51,783.935 2456.84,782.935 2459.5,782.5 Z"/></g>
<g><path style="opacity:1" fill="#763400" d="M 2452.5,785.5 C 2450.71,786.391 2448.88,787.391 2447,788.5C 2446.6,788.272 2446.43,787.938 2446.5,787.5C 2448.1,785.926 2450.1,785.259 2452.5,785.5 Z"/></g>
<g><path style="opacity:1" fill="#9f5200" d="M 2445.5,787.5 C 2443.71,788.391 2441.88,789.391 2440,790.5C 2438.04,790.216 2435.88,790.216 2433.5,790.5C 2435.55,788.657 2438.05,787.324 2441,786.5C 2442.36,787.38 2443.86,787.714 2445.5,787.5 Z"/></g>
<g><path style="opacity:1" fill="#763400" d="M 2372.5,788.5 C 2373.83,788.5 2375.17,788.5 2376.5,788.5C 2377.83,789.167 2379.17,789.833 2380.5,790.5C 2377.45,790.889 2374.78,790.223 2372.5,788.5 Z"/></g>
<g><path style="opacity:1" fill="#a55700" d="M 2376.5,788.5 C 2386.32,789.351 2396.65,790.184 2407.5,791C 2408.42,791.278 2409.08,791.778 2409.5,792.5C 2401.48,792.33 2393.64,792.33 2386,792.5C 2384.24,790.738 2382.4,790.072 2380.5,790.5C 2379.17,789.833 2377.83,789.167 2376.5,788.5 Z"/></g>
<g><path style="opacity:1" fill="#984d00" d="M 2432.5,790.5 C 2431.47,791.249 2430.3,791.915 2429,792.5C 2425.32,792.132 2421.15,792.132 2416.5,792.5C 2420.67,791.784 2424.84,790.784 2429,789.5C 2430.38,789.514 2431.55,789.848 2432.5,790.5 Z"/></g>
<g><path style="opacity:1" fill="#763400" d="M 2410.5,792.5 C 2412.17,791.167 2413.83,791.167 2415.5,792.5C 2413.83,792.5 2412.17,792.5 2410.5,792.5 Z"/></g>
<g><path style="opacity:1" fill="#a15400" d="M 1482.5,791.5 C 1478.17,805.81 1473.67,820.143 1469,834.5C 1467.1,839.063 1464.94,843.396 1462.5,847.5C 1468.56,829.847 1474.73,811.513 1481,792.5C 1481.38,791.944 1481.88,791.611 1482.5,791.5 Z"/></g>
<g><path style="opacity:1" fill="#330000" d="M 1668.5,821.5 C 1669,826.85 1670.33,831.516 1672.5,835.5C 1673.91,842.873 1675.91,850.04 1678.5,857C 1678.17,857.333 1677.83,857.667 1677.5,858C 1680.95,868.178 1684.28,878.345 1687.5,888.5C 1687.5,888.833 1687.5,889.167 1687.5,889.5C 1687.26,891.898 1687.93,893.898 1689.5,895.5C 1690.56,901.749 1692.23,907.749 1694.5,913.5C 1693.19,914.895 1693.52,915.895 1695.5,916.5C 1696.43,917.568 1696.77,918.901 1696.5,920.5C 1697.46,925.049 1698.8,929.383 1700.5,933.5C 1700.39,934.117 1700.06,934.617 1699.5,935C 1701.66,938.645 1703.32,942.478 1704.5,946.5C 1706.09,952.943 1708.09,959.276 1710.5,965.5C 1710.29,966.086 1709.96,966.586 1709.5,967C 1710.78,968.409 1711.78,969.909 1712.5,971.5C 1711.19,972.895 1711.52,973.895 1713.5,974.5C 1714.46,979.907 1716.12,985.074 1718.5,990C 1717.71,991.313 1718.05,992.48 1719.5,993.5C 1721.49,1002.28 1724.15,1010.78 1727.5,1019C 1727.17,1019.33 1726.83,1019.67 1726.5,1020C 1728.95,1024.72 1730.95,1029.55 1732.5,1034.5C 1733.32,1038.14 1734.15,1041.81 1735,1045.5C 1735.38,1046.06 1735.88,1046.39 1736.5,1046.5C 1736.5,1046.83 1736.5,1047.17 1736.5,1047.5C 1737.13,1051.05 1738.13,1054.38 1739.5,1057.5C 1739.88,1059.7 1740.54,1061.7 1741.5,1063.5C 1741.39,1064.12 1741.06,1064.62 1740.5,1065C 1742.66,1068.64 1744.32,1072.48 1745.5,1076.5C 1746.46,1081.05 1747.8,1085.38 1749.5,1089.5C 1750.63,1095.44 1752.29,1100.78 1754.5,1105.5C 1758.74,1121.22 1763.74,1136.55 1769.5,1151.5C 1769.5,1151.83 1769.5,1152.17 1769.5,1152.5C 1769.26,1154.9 1769.93,1156.9 1771.5,1158.5C 1779.26,1182.78 1786.93,1206.78 1794.5,1230.5C 1793.76,1231.29 1792.92,1231.95 1792,1232.5C 1790.17,1231.25 1788.34,1231.25 1786.5,1232.5C 1705.83,1231.17 1625.17,1231.17 1544.5,1232.5C 1544.17,1232.5 1543.83,1232.5 1543.5,1232.5C 1542.12,1231.2 1540.62,1231.2 1539,1232.5C 1538.08,1231.95 1537.24,1231.29 1536.5,1230.5C 1538.1,1227.69 1539.1,1224.69 1539.5,1221.5C 1540.74,1219.79 1541.41,1217.79 1541.5,1215.5C 1541.88,1213.3 1542.54,1211.3 1543.5,1209.5C 1545.27,1207.21 1546.27,1204.54 1546.5,1201.5C 1549.08,1196.55 1550.74,1191.22 1551.5,1185.5C 1553.28,1184.01 1553.95,1182.01 1553.5,1179.5C 1553.33,1178.51 1553.66,1177.84 1554.5,1177.5C 1556.77,1172.45 1558.44,1167.11 1559.5,1161.5C 1559.26,1160.21 1559.6,1159.21 1560.5,1158.5C 1562.79,1153.11 1564.45,1147.45 1565.5,1141.5C 1570.09,1128.49 1574.09,1115.16 1577.5,1101.5C 1577.5,1101.17 1577.5,1100.83 1577.5,1100.5C 1579.74,1095.11 1581.41,1089.44 1582.5,1083.5C 1584.61,1079.5 1585.94,1075.16 1586.5,1070.5C 1586.33,1069.51 1586.66,1068.84 1587.5,1068.5C 1588.61,1066.4 1589.28,1064.07 1589.5,1061.5C 1589.26,1059.1 1589.93,1057.1 1591.5,1055.5C 1593.59,1051.51 1594.92,1047.18 1595.5,1042.5C 1595.26,1040.1 1595.93,1038.1 1597.5,1036.5C 1599.62,1031.05 1601.28,1025.38 1602.5,1019.5C 1604.07,1017.9 1604.74,1015.9 1604.5,1013.5C 1604.5,1013.17 1604.5,1012.83 1604.5,1012.5C 1607.66,1004.37 1610.33,996.034 1612.5,987.5C 1612.5,987.167 1612.5,986.833 1612.5,986.5C 1618.43,970.161 1623.76,953.494 1628.5,936.5C 1630.59,932.51 1631.92,928.177 1632.5,923.5C 1634.2,919.383 1635.54,915.05 1636.5,910.5C 1636.23,908.901 1636.57,907.568 1637.5,906.5C 1639.16,904.562 1639.83,902.228 1639.5,899.5C 1639.26,898.209 1639.6,897.209 1640.5,896.5C 1642.78,890.452 1644.45,884.119 1645.5,877.5C 1647.16,875.562 1647.83,873.228 1647.5,870.5C 1647.5,870.167 1647.5,869.833 1647.5,869.5C 1649.16,867.562 1649.83,865.228 1649.5,862.5C 1649.5,862.167 1649.5,861.833 1649.5,861.5C 1652.69,851.429 1655.36,841.096 1657.5,830.5C 1657.5,829.833 1657.5,829.167 1657.5,828.5C 1658.92,826.485 1659.59,824.152 1659.5,821.5C 1659.5,820.833 1659.5,820.167 1659.5,819.5C 1660.92,817.485 1661.59,815.152 1661.5,812.5C 1661.5,811.833 1661.5,811.167 1661.5,810.5C 1662.16,809.602 1662.82,808.602 1663.5,807.5C 1664.91,810.976 1666.24,814.476 1667.5,818C 1666.71,819.313 1667.05,820.48 1668.5,821.5 Z"/></g>
<g><path style="opacity:1" fill="#a25400" d="M 1668.5,821.5 C 1667.05,820.48 1666.71,819.313 1667.5,818C 1666.24,814.476 1664.91,810.976 1663.5,807.5C 1662.82,808.602 1662.16,809.602 1661.5,810.5C 1661.5,808.833 1661.5,807.167 1661.5,805.5C 1663.45,805.227 1664.95,805.893 1666,807.5C 1667.78,812.003 1668.61,816.67 1668.5,821.5 Z"/></g>
<g><path style="opacity:1" fill="#a05300" d="M 1856.5,761.5 C 1864.9,782.697 1872.57,804.364 1879.5,826.5C 1878.88,826.389 1878.38,826.056 1878,825.5C 1870.34,804.127 1863.17,782.794 1856.5,761.5 Z"/></g>
<g><path style="opacity:1" fill="#763400" d="M 1661.5,812.5 C 1661.59,815.152 1660.92,817.485 1659.5,819.5C 1659.41,816.848 1660.08,814.515 1661.5,812.5 Z"/></g>
<g><path style="opacity:1" fill="#763400" d="M 1659.5,821.5 C 1659.59,824.152 1658.92,826.485 1657.5,828.5C 1657.41,825.848 1658.08,823.515 1659.5,821.5 Z"/></g>
<g><path style="opacity:1" fill="#9c5000" d="M 1668.5,821.5 C 1671.01,825.622 1672.34,830.288 1672.5,835.5C 1670.33,831.516 1669,826.85 1668.5,821.5 Z"/></g>
<g><path style="opacity:1" fill="#984d00" d="M 1657.5,830.5 C 1655.36,841.096 1652.69,851.429 1649.5,861.5C 1651.49,851.874 1653.32,842.208 1655,832.5C 1655.71,831.619 1656.54,830.953 1657.5,830.5 Z"/></g>
<g><path style="opacity:1" fill="#984d00" d="M 1879.5,826.5 C 1883.75,835.475 1887.08,844.809 1889.5,854.5C 1887.08,852.122 1885.91,849.122 1886,845.5C 1884.24,844.531 1883.74,843.364 1884.5,842C 1882.02,837.099 1880.35,831.933 1879.5,826.5 Z"/></g>
<g><path style="opacity:1" fill="#a15400" d="M 1672.5,835.5 C 1677.85,849.2 1682.35,863.2 1686,877.5C 1686.42,881.191 1686.92,884.858 1687.5,888.5C 1684.28,878.345 1680.95,868.178 1677.5,858C 1677.83,857.667 1678.17,857.333 1678.5,857C 1675.91,850.04 1673.91,842.873 1672.5,835.5 Z"/></g>
<g><path style="opacity:1" fill="#763400" d="M 1649.5,862.5 C 1649.83,865.228 1649.16,867.562 1647.5,869.5C 1647.72,866.933 1648.39,864.599 1649.5,862.5 Z"/></g>
<g><path style="opacity:1" fill="#763400" d="M 1647.5,870.5 C 1647.83,873.228 1647.16,875.562 1645.5,877.5C 1645.72,874.933 1646.39,872.599 1647.5,870.5 Z"/></g>
<g><path style="opacity:1" fill="#a25400" d="M 1462.5,848.5 C 1458.21,865.373 1452.54,881.707 1445.5,897.5C 1450.4,880.885 1456.07,864.552 1462.5,848.5 Z"/></g>
<g><path style="opacity:1" fill="#ad5d00" d="M 2508.5,877.5 C 2507.83,878.267 2506.99,878.934 2506,879.5C 2437.57,878.973 2369.07,878.639 2300.5,878.5C 2297.43,879.691 2294.77,881.358 2292.5,883.5C 2292.17,883.5 2291.83,883.5 2291.5,883.5C 2292.99,879.656 2295.82,877.322 2300,876.5C 2369.62,876.735 2439.12,877.068 2508.5,877.5 Z"/></g>
<g><path style="opacity:1" fill="#fe9900" d="M 2508.5,877.5 C 2508.83,877.5 2509.17,877.5 2509.5,877.5C 2511.59,879.39 2513.92,881.057 2516.5,882.5C 2517.14,884.78 2518.14,886.78 2519.5,888.5C 2519.83,1155.54 2519.5,1422.54 2518.5,1689.5C 2517.6,1690.29 2516.93,1691.29 2516.5,1692.5C 2513.78,1692.94 2511.78,1694.27 2510.5,1696.5C 2510.17,1696.5 2509.83,1696.5 2509.5,1696.5C 2440.5,1695.17 2371.5,1695.17 2302.5,1696.5C 2302.17,1696.5 2301.83,1696.5 2301.5,1696.5C 2301.63,1695.62 2301.3,1694.96 2300.5,1694.5C 2295.83,1693.33 2293,1690.33 2292,1685.5C 2291.17,1418.13 2291.34,1150.79 2292.5,883.5C 2294.77,881.358 2297.43,879.691 2300.5,878.5C 2369.07,878.639 2437.57,878.973 2506,879.5C 2506.99,878.934 2507.83,878.267 2508.5,877.5 Z"/></g>
<g><path style="opacity:1" fill="#a25400" d="M 2519.5,885.5 C 2519.5,886.5 2519.5,887.5 2519.5,888.5C 2518.14,886.78 2517.14,884.78 2516.5,882.5C 2513.92,881.057 2511.59,879.39 2509.5,877.5C 2509.43,877.062 2509.6,876.728 2510,876.5C 2514.84,877.82 2518.01,880.82 2519.5,885.5 Z"/></g>
<g><path style="opacity:1" fill="#a75900" d="M 2291.5,883.5 C 2291.83,883.5 2292.17,883.5 2292.5,883.5C 2291.34,1150.79 2291.17,1418.13 2292,1685.5C 2293,1690.33 2295.83,1693.33 2300.5,1694.5C 2301.3,1694.96 2301.63,1695.62 2301.5,1696.5C 2297.31,1696.22 2293.81,1693.56 2291,1688.5C 2290.67,1686.83 2290.33,1685.17 2290,1683.5C 2289.5,1417.46 2289.34,1151.63 2289.5,886C 2290.07,885.005 2290.73,884.172 2291.5,883.5 Z"/></g>
<g><path style="opacity:1" fill="#763400" d="M 2519.5,885.5 C 2520.17,1019.17 2520.5,1153 2520.5,1287C 2520.33,1420.83 2520.17,1554.67 2520,1688.5C 2519.62,1689.06 2519.12,1689.39 2518.5,1689.5C 2519.5,1422.54 2519.83,1155.54 2519.5,888.5C 2519.5,887.5 2519.5,886.5 2519.5,885.5 Z"/></g>
<g><path style="opacity:1" fill="#9d5100" d="M 1645.5,877.5 C 1644.45,884.119 1642.78,890.452 1640.5,896.5C 1640.34,893.813 1640.5,891.146 1641,888.5C 1641.82,884.46 1643.32,880.793 1645.5,877.5 Z"/></g>
<g><path style="opacity:1" fill="#763400" d="M 1687.5,889.5 C 1688.74,891.214 1689.41,893.214 1689.5,895.5C 1687.93,893.898 1687.26,891.898 1687.5,889.5 Z"/></g>
<g><path style="opacity:1" fill="#763400" d="M 1445.5,897.5 C 1445.2,899.403 1444.54,901.07 1443.5,902.5C 1443.12,900.302 1443.79,898.635 1445.5,897.5 Z"/></g>
<g><path style="opacity:1" fill="#763400" d="M 1639.5,899.5 C 1639.83,902.228 1639.16,904.562 1637.5,906.5C 1637.72,903.933 1638.39,901.599 1639.5,899.5 Z"/></g>
<g><path style="opacity:1" fill="#9a4e00" d="M 1689.5,895.5 C 1692.42,901.071 1694.09,907.071 1694.5,913.5C 1692.23,907.749 1690.56,901.749 1689.5,895.5 Z"/></g>
<g><path style="opacity:1" fill="#763400" d="M 1694.5,913.5 C 1695.4,914.209 1695.74,915.209 1695.5,916.5C 1693.52,915.895 1693.19,914.895 1694.5,913.5 Z"/></g>
<g><path style="opacity:1" fill="#9f5200" d="M 1443.5,903.5 C 1441.69,912.015 1439.19,920.349 1436,928.5C 1435.25,931.679 1433.75,934.346 1431.5,936.5C 1435.06,925.197 1439.06,914.197 1443.5,903.5 Z"/></g>
<g><path style="opacity:1" fill="#a35600" d="M 1636.5,910.5 C 1635.54,915.05 1634.2,919.383 1632.5,923.5C 1631.05,920.029 1631.72,916.862 1634.5,914C 1633.65,912.215 1634.31,911.049 1636.5,910.5 Z"/></g>
<g><path style="opacity:1" fill="#9e5200" d="M 1889.5,854.5 C 1902.29,888.803 1914.63,923.469 1926.5,958.5C 1925.8,956.333 1924.47,954.5 1922.5,953C 1913.38,924.763 1903.55,896.596 1893,868.5C 1891.53,863.895 1890.36,859.228 1889.5,854.5 Z"/></g>
<g><path style="opacity:1" fill="#984d00" d="M 1696.5,920.5 C 1699.8,924.137 1701.14,928.471 1700.5,933.5C 1698.8,929.383 1697.46,925.049 1696.5,920.5 Z"/></g>
<g><path style="opacity:1" fill="#843e00" d="M 1632.5,923.5 C 1631.92,928.177 1630.59,932.51 1628.5,936.5C 1628.34,933.472 1629.01,930.639 1630.5,928C 1629.35,925.796 1630.02,924.296 1632.5,923.5 Z"/></g>
<g><path style="opacity:1" fill="#9a4e00" d="M 1700.5,933.5 C 1703.38,937.149 1704.71,941.482 1704.5,946.5C 1703.32,942.478 1701.66,938.645 1699.5,935C 1700.06,934.617 1700.39,934.117 1700.5,933.5 Z"/></g>
<g><path style="opacity:1" fill="#9e5100" d="M 1628.5,936.5 C 1623.76,953.494 1618.43,970.161 1612.5,986.5C 1615.81,972.479 1619.81,958.979 1624.5,946C 1624.52,942.476 1625.85,939.31 1628.5,936.5 Z"/></g>
<g><path style="opacity:1" fill="#9d5100" d="M 1431.5,938.5 C 1429.54,948.067 1426.21,957.067 1421.5,965.5C 1421.06,965.565 1420.73,965.399 1420.5,965C 1424.34,956.816 1427.51,948.316 1430,939.5C 1430.38,938.944 1430.88,938.611 1431.5,938.5 Z"/></g>
<g><path style="opacity:1" fill="#9c5000" d="M 1704.5,946.5 C 1707.51,951.004 1709.68,956.004 1711,961.5C 1711.61,964.827 1712.11,968.161 1712.5,971.5C 1711.78,969.909 1710.78,968.409 1709.5,967C 1709.96,966.586 1710.29,966.086 1710.5,965.5C 1708.09,959.276 1706.09,952.943 1704.5,946.5 Z"/></g>
<g><path style="opacity:1" fill="#9b4f00" d="M 1926.5,958.5 C 1929.49,963.739 1931.49,969.406 1932.5,975.5C 1930.65,971.955 1928.65,968.455 1926.5,965C 1926.78,963.044 1926.78,960.877 1926.5,958.5 Z"/></g>
<g><path style="opacity:1" fill="#763400" d="M 1712.5,971.5 C 1713.4,972.209 1713.74,973.209 1713.5,974.5C 1711.52,973.895 1711.19,972.895 1712.5,971.5 Z"/></g>
<g><path style="opacity:1" fill="#9d5100" d="M 1713.5,974.5 C 1715.59,978.215 1717.42,982.215 1719,986.5C 1719.5,988.81 1719.66,991.143 1719.5,993.5C 1718.05,992.48 1717.71,991.313 1718.5,990C 1716.12,985.074 1714.46,979.907 1713.5,974.5 Z"/></g>
<g><path style="opacity:1" fill="#a05300" d="M 1421.5,966.5 C 1416.97,983.924 1411.14,1000.92 1404,1017.5C 1401.59,1028.78 1397.76,1039.45 1392.5,1049.5C 1401.35,1021.92 1411.01,994.25 1421.5,966.5 Z"/></g>
<g><path style="opacity:1" fill="#9d5100" d="M 1932.5,975.5 C 1936.58,984.086 1939.91,993.086 1942.5,1002.5C 1941.62,1002.63 1940.96,1002.3 1940.5,1001.5C 1939.96,999.339 1939.13,997.339 1938,995.5C 1935.87,988.95 1934.04,982.284 1932.5,975.5 Z"/></g>
<g><path style="opacity:1" fill="#a05300" d="M 1612.5,987.5 C 1610.33,996.034 1607.66,1004.37 1604.5,1012.5C 1605.8,1003.62 1608.47,995.287 1612.5,987.5 Z"/></g>
<g><path style="opacity:1" fill="#763400" d="M 1604.5,1013.5 C 1604.74,1015.9 1604.07,1017.9 1602.5,1019.5C 1602.59,1017.21 1603.26,1015.21 1604.5,1013.5 Z"/></g>
<g><path style="opacity:1" fill="#9b4f00" d="M 1602.5,1019.5 C 1601.28,1025.38 1599.62,1031.05 1597.5,1036.5C 1597.42,1031.66 1598.25,1027 1600,1022.5C 1600.85,1021.43 1601.69,1020.43 1602.5,1019.5 Z"/></g>
<g><path style="opacity:1" fill="#a25400" d="M 1719.5,993.5 C 1722.08,997.01 1723.92,1001.01 1725,1005.5C 1726.38,1012.13 1728.38,1018.47 1731,1024.5C 1731.46,1027.85 1731.96,1031.19 1732.5,1034.5C 1730.95,1029.55 1728.95,1024.72 1726.5,1020C 1726.83,1019.67 1727.17,1019.33 1727.5,1019C 1724.15,1010.78 1721.49,1002.28 1719.5,993.5 Z"/></g>
<g><path style="opacity:1" fill="#954a00" d="M 1732.5,1034.5 C 1733.31,1035.43 1734.15,1036.43 1735,1037.5C 1735.36,1040.54 1735.86,1043.54 1736.5,1046.5C 1735.88,1046.39 1735.38,1046.06 1735,1045.5C 1734.15,1041.81 1733.32,1038.14 1732.5,1034.5 Z"/></g>
<g><path style="opacity:1" fill="#9e5200" d="M 1942.5,1003.5 C 1949.44,1021.23 1955.77,1039.23 1961.5,1057.5C 1959.88,1055.88 1958.72,1053.88 1958,1051.5C 1952.55,1035.9 1947.05,1020.4 1941.5,1005C 1941.57,1004.24 1941.9,1003.74 1942.5,1003.5 Z"/></g>
<g><path style="opacity:1" fill="#964b00" d="M 1595.5,1042.5 C 1594.92,1047.18 1593.59,1051.51 1591.5,1055.5C 1590.86,1050.47 1592.2,1046.14 1595.5,1042.5 Z"/></g>
<g><path style="opacity:1" fill="#9b4f00" d="M 1736.5,1047.5 C 1737.79,1048.06 1738.62,1049.06 1739,1050.5C 1739.5,1052.81 1739.66,1055.14 1739.5,1057.5C 1738.13,1054.38 1737.13,1051.05 1736.5,1047.5 Z"/></g>
<g><path style="opacity:1" fill="#874000" d="M 1739.5,1057.5 C 1741.31,1058.92 1741.97,1060.92 1741.5,1063.5C 1740.54,1061.7 1739.88,1059.7 1739.5,1057.5 Z"/></g>
<g><path style="opacity:1" fill="#763400" d="M 1589.5,1061.5 C 1589.28,1064.07 1588.61,1066.4 1587.5,1068.5C 1587.17,1065.77 1587.84,1063.44 1589.5,1061.5 Z"/></g>
<g><path style="opacity:1" fill="#9a4e00" d="M 1741.5,1063.5 C 1744.38,1067.15 1745.71,1071.48 1745.5,1076.5C 1744.32,1072.48 1742.66,1068.64 1740.5,1065C 1741.06,1064.62 1741.39,1064.12 1741.5,1063.5 Z"/></g>
<g><path style="opacity:1" fill="#9a4f00" d="M 1961.5,1057.5 C 1964.27,1062.82 1966.27,1068.49 1967.5,1074.5C 1964.15,1069.43 1962.15,1063.76 1961.5,1057.5 Z"/></g>
<g><path style="opacity:1" fill="#a05300" d="M 1586.5,1070.5 C 1585.94,1075.16 1584.61,1079.5 1582.5,1083.5C 1582.26,1078.55 1583.6,1074.22 1586.5,1070.5 Z"/></g>
<g><path style="opacity:1" fill="#9b4f00" d="M 1745.5,1076.5 C 1748.38,1080.15 1749.71,1084.48 1749.5,1089.5C 1747.8,1085.38 1746.46,1081.05 1745.5,1076.5 Z"/></g>
<g><path style="opacity:1" fill="#843e00" d="M 1967.5,1074.5 C 1969.07,1076.51 1970.07,1078.84 1970.5,1081.5C 1968.17,1079.82 1967.17,1077.49 1967.5,1074.5 Z"/></g>
<g><path style="opacity:1" fill="#9c5000" d="M 1582.5,1083.5 C 1581.41,1089.44 1579.74,1095.11 1577.5,1100.5C 1577.95,1096.84 1578.45,1093.17 1579,1089.5C 1579.72,1087.12 1580.88,1085.12 1582.5,1083.5 Z"/></g>
<g><path style="opacity:1" fill="#984d00" d="M 1749.5,1089.5 C 1750.79,1090.06 1751.62,1091.06 1752,1092.5C 1753.34,1096.75 1754.17,1101.09 1754.5,1105.5C 1752.29,1100.78 1750.63,1095.44 1749.5,1089.5 Z"/></g>
<g><path style="opacity:1" fill="#9d5100" d="M 1971.5,1085.5 C 1975.58,1094.13 1978.92,1103.13 1981.5,1112.5C 1979.51,1110.53 1978.01,1108.2 1977,1105.5C 1975.85,1100.41 1974.01,1095.57 1971.5,1091C 1971.85,1089.37 1971.85,1087.54 1971.5,1085.5 Z"/></g>
<g><path style="opacity:1" fill="#a35500" d="M 1577.5,1101.5 C 1574.09,1115.16 1570.09,1128.49 1565.5,1141.5C 1568.56,1128.83 1571.73,1116.16 1575,1103.5C 1575.42,1102.24 1576.25,1101.58 1577.5,1101.5 Z"/></g>
<g><path style="opacity:1" fill="#a35500" d="M 1754.5,1105.5 C 1759.07,1117.69 1763.57,1130.02 1768,1142.5C 1768.36,1145.54 1768.86,1148.54 1769.5,1151.5C 1763.74,1136.55 1758.74,1121.22 1754.5,1105.5 Z"/></g>
<g><path style="opacity:1" fill="#9f5200" d="M 1981.5,1113.5 C 1986.92,1126.12 1991.58,1139.12 1995.5,1152.5C 1992.83,1148.5 1990.67,1144.17 1989,1139.5C 1986.4,1131.27 1983.57,1123.11 1980.5,1115C 1980.57,1114.24 1980.9,1113.74 1981.5,1113.5 Z"/></g>
<g><path style="opacity:1" fill="#9c5000" d="M 1565.5,1141.5 C 1564.45,1147.45 1562.79,1153.11 1560.5,1158.5C 1560.42,1153.66 1561.25,1149 1563,1144.5C 1563.85,1143.43 1564.69,1142.43 1565.5,1141.5 Z"/></g>
<g><path style="opacity:1" fill="#763400" d="M 1769.5,1152.5 C 1770.74,1154.21 1771.41,1156.21 1771.5,1158.5C 1769.93,1156.9 1769.26,1154.9 1769.5,1152.5 Z"/></g>
<g><path style="opacity:1" fill="#984d00" d="M 1559.5,1161.5 C 1558.44,1167.11 1556.77,1172.45 1554.5,1177.5C 1554.34,1175.14 1554.5,1172.81 1555,1170.5C 1555.83,1167.1 1557.33,1164.1 1559.5,1161.5 Z"/></g>
<g><path style="opacity:1" fill="#9f5200" d="M 1995.5,1153.5 C 2000.14,1163.41 2003.8,1173.74 2006.5,1184.5C 2001.48,1174.77 1997.81,1164.43 1995.5,1153.5 Z"/></g>
<g><path style="opacity:1" fill="#a05300" d="M 1392.5,1049.5 C 1391.97,1054.7 1390.8,1059.7 1389,1064.5C 1374.73,1103.66 1361.06,1142.99 1348,1182.5C 1344.75,1189.59 1342.08,1196.92 1340,1204.5C 1339.62,1205.94 1338.79,1206.94 1337.5,1207.5C 1355.18,1154.32 1373.51,1101.65 1392.5,1049.5 Z"/></g>
<g><path style="opacity:1" fill="#763400" d="M 1553.5,1179.5 C 1553.95,1182.01 1553.28,1184.01 1551.5,1185.5C 1551.88,1183.3 1552.54,1181.3 1553.5,1179.5 Z"/></g>
<g><path style="opacity:1" fill="#9f5200" d="M 1771.5,1158.5 C 1772.31,1159.43 1773.15,1160.43 1774,1161.5C 1781.67,1184.85 1789.17,1208.35 1796.5,1232C 1795.67,1232.83 1794.83,1233.67 1794,1234.5C 1792.43,1235.06 1791.1,1234.39 1790,1232.5C 1788.16,1234.49 1786.99,1234.49 1786.5,1232.5C 1788.34,1231.25 1790.17,1231.25 1792,1232.5C 1792.92,1231.95 1793.76,1231.29 1794.5,1230.5C 1786.93,1206.78 1779.26,1182.78 1771.5,1158.5 Z"/></g>
<g><path style="opacity:1" fill="#843e00" d="M 2006.5,1184.5 C 2008.07,1186.51 2009.07,1188.84 2009.5,1191.5C 2007.17,1189.82 2006.17,1187.49 2006.5,1184.5 Z"/></g>
<g><path style="opacity:1" fill="#994e00" d="M 1551.5,1185.5 C 1550.74,1191.22 1549.08,1196.55 1546.5,1201.5C 1546.34,1199.47 1546.5,1197.47 1547,1195.5C 1547.91,1191.81 1549.41,1188.47 1551.5,1185.5 Z"/></g>
<g><path style="opacity:1" fill="#9b4f00" d="M 1546.5,1201.5 C 1546.27,1204.54 1545.27,1207.21 1543.5,1209.5C 1543.85,1207.46 1543.85,1205.63 1543.5,1204C 1544.37,1202.96 1545.37,1202.12 1546.5,1201.5 Z"/></g>
<g><path style="opacity:1" fill="#9e5100" d="M 2010.5,1195.5 C 2013.55,1200.67 2015.55,1206.33 2016.5,1212.5C 2014.54,1208.76 2012.54,1204.93 2010.5,1201C 2010.85,1199.37 2010.85,1197.54 2010.5,1195.5 Z"/></g>
<g><path style="opacity:1" fill="#a15400" d="M 1541.5,1215.5 C 1541.41,1217.79 1540.74,1219.79 1539.5,1221.5C 1539.03,1218.92 1539.69,1216.92 1541.5,1215.5 Z"/></g>
<g><path style="opacity:1" fill="#a85900" d="M 1539.5,1221.5 C 1539.1,1224.69 1538.1,1227.69 1536.5,1230.5C 1537.24,1231.29 1538.08,1231.95 1539,1232.5C 1540.62,1231.2 1542.12,1231.2 1543.5,1232.5C 1542.27,1232.03 1541.27,1232.7 1540.5,1234.5C 1538.49,1234.87 1536.49,1234.37 1534.5,1233C 1534.84,1231.13 1535.34,1228.97 1536,1226.5C 1536.74,1224.4 1537.9,1222.74 1539.5,1221.5 Z"/></g>
<g><path style="opacity:1" fill="#763400" d="M 1786.5,1232.5 C 1705.62,1233.38 1624.96,1233.38 1544.5,1232.5C 1625.17,1231.17 1705.83,1231.17 1786.5,1232.5 Z"/></g>
<g><path style="opacity:1" fill="#a05300" d="M 2016.5,1212.5 C 2023.39,1228.66 2029.39,1245.33 2034.5,1262.5C 2031.83,1258.5 2029.67,1254.17 2028,1249.5C 2023.7,1237.3 2019.87,1224.96 2016.5,1212.5 Z"/></g>
<g><path style="opacity:1" fill="#a65700" d="M 2034.5,1263.5 C 2036.27,1265.79 2037.27,1268.46 2037.5,1271.5C 2035.31,1269.48 2034.31,1266.81 2034.5,1263.5 Z"/></g>
<g><path style="opacity:1" fill="#9f5200" d="M 2037.5,1271.5 C 2042.07,1282.55 2046.07,1293.88 2049.5,1305.5C 2047.43,1302.08 2045.43,1298.58 2043.5,1295C 2043.83,1294.67 2044.17,1294.33 2044.5,1294C 2041.37,1287.11 2039.03,1279.61 2037.5,1271.5 Z"/></g>
<g><path style="opacity:1" fill="#9a4e00" d="M 2049.5,1305.5 C 2052.27,1310.81 2054.27,1316.47 2055.5,1322.5C 2053.28,1318.87 2051.28,1315.03 2049.5,1311C 2049.85,1309.37 2049.85,1307.54 2049.5,1305.5 Z"/></g>
<g><path style="opacity:1" fill="#874000" d="M 2055.5,1322.5 C 2057.07,1324.1 2057.74,1326.1 2057.5,1328.5C 2055.93,1326.9 2055.26,1324.9 2055.5,1322.5 Z"/></g>
<g><path style="opacity:1" fill="#a25400" d="M 1337.5,1208.5 C 1337.32,1211.22 1336.82,1213.88 1336,1216.5C 1318.55,1265.1 1301.38,1313.77 1284.5,1362.5C 1284.5,1361.83 1284.5,1361.17 1284.5,1360.5C 1284.39,1359.88 1284.06,1359.38 1283.5,1359C 1287.04,1351.7 1289.7,1344.37 1291.5,1337C 1302.8,1305.59 1314.13,1273.92 1325.5,1242C 1325.17,1241.67 1324.83,1241.33 1324.5,1241C 1329.22,1229.93 1333.56,1219.1 1337.5,1208.5 Z"/></g>
<g><path style="opacity:1" fill="#763400" d="M 1284.5,1360.5 C 1284.5,1361.17 1284.5,1361.83 1284.5,1362.5C 1282.86,1366.39 1281.53,1370.39 1280.5,1374.5C 1280.17,1374.5 1279.83,1374.5 1279.5,1374.5C 1280.26,1369.43 1281.93,1364.76 1284.5,1360.5 Z"/></g>
<g><path style="opacity:1" fill="#9d5100" d="M 2057.5,1328.5 C 2064.58,1345.76 2070.91,1363.42 2076.5,1381.5C 2074.2,1378.23 2072.36,1374.56 2071,1370.5C 2067,1359.17 2063,1347.83 2059,1336.5C 2058.6,1333.79 2058.1,1331.13 2057.5,1328.5 Z"/></g>
<g><path style="opacity:1" fill="#a45600" d="M 1279.5,1374.5 C 1279.83,1374.5 1280.17,1374.5 1280.5,1374.5C 1278.25,1382.51 1275.25,1390.18 1271.5,1397.5C 1273.71,1389.63 1276.38,1381.96 1279.5,1374.5 Z"/></g>
<g><path style="opacity:1" fill="#a45600" d="M 2076.5,1381.5 C 2083.27,1398.14 2089.27,1415.14 2094.5,1432.5C 2093.08,1430.81 2091.75,1428.98 2090.5,1427C 2090.83,1426.67 2091.17,1426.33 2091.5,1426C 2089.35,1420.54 2087.02,1415.2 2084.5,1410C 2084.83,1409.67 2085.17,1409.33 2085.5,1409C 2081.49,1400.13 2078.49,1390.96 2076.5,1381.5 Z"/></g>
<g><path style="opacity:1" fill="#a35600" d="M 1271.5,1397.5 C 1270.97,1402.7 1269.8,1407.7 1268,1412.5C 1256.82,1443.72 1245.82,1475.05 1235,1506.5C 1233.99,1509.84 1232.49,1512.84 1230.5,1515.5C 1236.79,1494.77 1243.79,1474.94 1251.5,1456C 1251.17,1455.67 1250.83,1455.33 1250.5,1455C 1257.61,1435.65 1264.61,1416.48 1271.5,1397.5 Z"/></g>
<g><path style="opacity:1" fill="#a75900" d="M 1858.5,1442.5 C 1858.17,1442.5 1857.83,1442.5 1857.5,1442.5C 1731.33,1441.83 1605.17,1441.17 1479,1440.5C 1477.89,1441.31 1476.72,1441.97 1475.5,1442.5C 1475.5,1441.5 1475.5,1440.5 1475.5,1439.5C 1602.83,1439.33 1730.17,1439.5 1857.5,1440C 1858.25,1440.67 1858.59,1441.5 1858.5,1442.5 Z"/></g>
<g><path style="opacity:1" fill="#984d00" d="M 1475.5,1442.5 C 1475.02,1446.08 1474.02,1449.42 1472.5,1452.5C 1471.86,1448.53 1472.86,1445.19 1475.5,1442.5 Z"/></g>
<g><path style="opacity:1" fill="#9c5000" d="M 1857.5,1442.5 C 1857.83,1442.5 1858.17,1442.5 1858.5,1442.5C 1861.57,1449.1 1863.57,1456.1 1864.5,1463.5C 1861.35,1456.84 1859.02,1449.84 1857.5,1442.5 Z"/></g>
<g><path style="opacity:1" fill="#984d00" d="M 1864.5,1463.5 C 1867.44,1466.77 1868.78,1470.77 1868.5,1475.5C 1867.25,1471.83 1865.58,1468.33 1863.5,1465C 1864.06,1464.62 1864.39,1464.12 1864.5,1463.5 Z"/></g>
<g><path style="opacity:1" fill="#994e00" d="M 1469.5,1461.5 C 1468.43,1467.13 1466.77,1472.46 1464.5,1477.5C 1464.5,1471.53 1466.17,1466.2 1469.5,1461.5 Z"/></g>
<g><path style="opacity:1" fill="#9e5200" d="M 2094.5,1432.5 C 2106.57,1463.69 2117.9,1495.36 2128.5,1527.5C 2126.57,1525.24 2124.9,1522.74 2123.5,1520C 2123.83,1519.67 2124.17,1519.33 2124.5,1519C 2115.74,1494.78 2106.91,1470.61 2098,1446.5C 2096.21,1441.99 2095.04,1437.32 2094.5,1432.5 Z"/></g>
<g><path style="opacity:1" fill="#a35500" d="M 1868.5,1475.5 C 1869.5,1475.47 1870.16,1475.97 1870.5,1477C 1879.37,1501.04 1887.37,1525.21 1894.5,1549.5C 1885.18,1524.88 1876.52,1500.21 1868.5,1475.5 Z"/></g>
<g><path style="opacity:1" fill="#a15400" d="M 1460.5,1489.5 C 1458.74,1496.78 1456.41,1503.78 1453.5,1510.5C 1454.41,1503.62 1456.08,1496.95 1458.5,1490.5C 1458.96,1489.7 1459.62,1489.37 1460.5,1489.5 Z"/></g>
<g><path style="opacity:1" fill="#9c5000" d="M 2128.5,1527.5 C 2130.74,1532.23 2132.41,1537.23 2133.5,1542.5C 2132.08,1540.81 2130.75,1538.98 2129.5,1537C 2129.83,1536.67 2130.17,1536.33 2130.5,1536C 2128.82,1533.44 2128.15,1530.6 2128.5,1527.5 Z"/></g>
<g><path style="opacity:1" fill="#843e00" d="M 2133.5,1542.5 C 2135.07,1544.51 2136.07,1546.84 2136.5,1549.5C 2134.17,1547.82 2133.17,1545.49 2133.5,1542.5 Z"/></g>
<g><path style="opacity:1" fill="#a45600" d="M 1453.5,1510.5 C 1448.34,1528.11 1442.68,1545.44 1436.5,1562.5C 1438.42,1553.07 1440.92,1543.73 1444,1534.5C 1446.58,1526.15 1449.74,1518.15 1453.5,1510.5 Z"/></g>
<g><path style="opacity:1" fill="#a15400" d="M 1230.5,1515.5 C 1222.66,1541.23 1214.16,1566.9 1205,1592.5C 1204.15,1593.57 1203.31,1594.57 1202.5,1595.5C 1211.2,1568.73 1220.54,1542.07 1230.5,1515.5 Z"/></g>
<g><path style="opacity:1" fill="#763400" d="M 1436.5,1563.5 C 1436.88,1565.7 1436.21,1567.36 1434.5,1568.5C 1434.8,1566.6 1435.46,1564.93 1436.5,1563.5 Z"/></g>
<g><path style="opacity:1" fill="#9a4f00" d="M 1894.5,1550.5 C 1896.58,1552.78 1898.08,1555.44 1899,1558.5C 1902.03,1566.98 1904.53,1575.64 1906.5,1584.5C 1905.88,1584.39 1905.38,1584.06 1905,1583.5C 1901.95,1572.29 1898.45,1561.29 1894.5,1550.5 Z"/></g>
<g><path style="opacity:1" fill="#853e00" d="M 1434.5,1569.5 C 1433.44,1575.11 1431.77,1580.45 1429.5,1585.5C 1429.96,1579.78 1431.63,1574.45 1434.5,1569.5 Z"/></g>
<g><path style="opacity:1" fill="#9e5200" d="M 2137.5,1553.5 C 2145.94,1575.54 2153.94,1597.87 2161.5,1620.5C 2160.17,1619.49 2159.17,1618.16 2158.5,1616.5C 2152,1597.18 2145,1578.01 2137.5,1559C 2137.85,1557.37 2137.85,1555.54 2137.5,1553.5 Z"/></g>
<g><path style="opacity:1" fill="#874000" d="M 1907.5,1588.5 C 1909.31,1589.92 1909.97,1591.92 1909.5,1594.5C 1908.54,1592.7 1907.88,1590.7 1907.5,1588.5 Z"/></g>
<g><path style="opacity:1" fill="#763400" d="M 1426.5,1593.5 C 1426.32,1597.49 1425.32,1601.16 1423.5,1604.5C 1423.68,1600.51 1424.68,1596.84 1426.5,1593.5 Z"/></g>
<g><path style="opacity:1" fill="#984d00" d="M 1909.5,1594.5 C 1910.5,1594.47 1911.16,1594.97 1911.5,1596C 1914.02,1602.72 1916.02,1609.55 1917.5,1616.5C 1914.27,1609.47 1911.6,1602.14 1909.5,1594.5 Z"/></g>
<g><path style="opacity:1" fill="#9d5100" d="M 1202.5,1596.5 C 1200.2,1607.4 1196.53,1617.74 1191.5,1627.5C 1194.36,1616.8 1198.02,1606.47 1202.5,1596.5 Z"/></g>
<g><path style="opacity:1" fill="#763400" d="M 1423.5,1604.5 C 1423.12,1606.7 1422.46,1608.7 1421.5,1610.5C 1421.05,1607.99 1421.72,1605.99 1423.5,1604.5 Z"/></g>
<g><path style="opacity:1" fill="#a15300" d="M 1917.5,1617.5 C 1918.75,1617.58 1919.58,1618.24 1920,1619.5C 1924.68,1633.9 1929.18,1648.24 1933.5,1662.5C 1927.66,1648.88 1922.66,1635.05 1918.5,1621C 1916.8,1619.95 1916.47,1618.79 1917.5,1617.5 Z"/></g>
<g><path style="opacity:1" fill="#a15400" d="M 2161.5,1621.5 C 2163.94,1625.8 2165.6,1630.47 2166.5,1635.5C 2163.32,1631.5 2161.65,1626.83 2161.5,1621.5 Z"/></g>
<g><path style="opacity:1" fill="#9a4f00" d="M 2166.5,1635.5 C 2169.4,1641.54 2171.74,1647.87 2173.5,1654.5C 2171.57,1652.24 2169.9,1649.74 2168.5,1647C 2168.83,1646.67 2169.17,1646.33 2169.5,1646C 2167.07,1642.96 2166.07,1639.46 2166.5,1635.5 Z"/></g>
<g><path style="opacity:1" fill="#763400" d="M 2173.5,1654.5 C 2174.54,1655.93 2175.2,1657.6 2175.5,1659.5C 2173.79,1658.36 2173.12,1656.7 2173.5,1654.5 Z"/></g>
<g><path style="opacity:1" fill="#a55600" d="M 1418.5,1618.5 C 1413.6,1636.19 1407.94,1653.52 1401.5,1670.5C 1405.53,1652.48 1411.19,1635.14 1418.5,1618.5 Z"/></g>
<g><path style="opacity:1" fill="#a35500" d="M 1191.5,1628.5 C 1186.11,1645.51 1180.61,1662.51 1175,1679.5C 1174.23,1683.59 1174.57,1687.59 1176,1691.5C 1178.38,1692.97 1180.88,1693.97 1183.5,1694.5C 1182.47,1694.93 1181.14,1694.93 1179.5,1694.5C 1176.18,1694.03 1173.85,1692.2 1172.5,1689C 1172.94,1685.89 1172.94,1682.56 1172.5,1679C 1178.84,1662.6 1184.67,1646.1 1190,1629.5C 1190.38,1628.94 1190.88,1628.61 1191.5,1628.5 Z"/></g>
<g><path style="opacity:1" fill="#763400" d="M 1933.5,1663.5 C 1934.54,1664.93 1935.2,1666.6 1935.5,1668.5C 1933.79,1667.36 1933.12,1665.7 1933.5,1663.5 Z"/></g>
<g><path style="opacity:1" fill="#9e5100" d="M 1935.5,1669.5 C 1936.46,1669.95 1937.29,1670.62 1938,1671.5C 1939.32,1678.61 1941.82,1685.28 1945.5,1691.5C 1942.8,1689.95 1940.96,1687.62 1940,1684.5C 1938.34,1679.53 1936.84,1674.53 1935.5,1669.5 Z"/></g>
<g><path style="opacity:1" fill="#763400" d="M 1401.5,1671.5 C 1401.88,1673.7 1401.21,1675.36 1399.5,1676.5C 1399.8,1674.6 1400.46,1672.93 1401.5,1671.5 Z"/></g>
<g><path style="opacity:1" fill="#9e5100" d="M 2176.5,1663.5 C 2179.55,1668.67 2181.55,1674.33 2182.5,1680.5C 2180.54,1676.76 2178.54,1672.93 2176.5,1669C 2176.85,1667.37 2176.85,1665.54 2176.5,1663.5 Z"/></g>
<g><path style="opacity:1" fill="#763400" d="M 1399.5,1677.5 C 1399.74,1679.9 1399.07,1681.9 1397.5,1683.5C 1397.59,1681.21 1398.26,1679.21 1399.5,1677.5 Z"/></g>
<g><path style="opacity:1" fill="#8a4200" d="M 2182.5,1681.5 C 2184.89,1684.91 2184.55,1688.25 2181.5,1691.5C 2181.19,1687.96 2181.52,1684.62 2182.5,1681.5 Z"/></g>
<g><path style="opacity:1" fill="#9b4f00" d="M 1397.5,1683.5 C 1397.77,1685.38 1397.1,1686.71 1395.5,1687.5C 1395.23,1685.62 1395.9,1684.29 1397.5,1683.5 Z"/></g>
<g><path style="opacity:1" fill="#9c5000" d="M 1395.5,1687.5 C 1394.83,1690.17 1393.17,1691.83 1390.5,1692.5C 1391.19,1689.81 1392.86,1688.14 1395.5,1687.5 Z"/></g>
<g><path style="opacity:1" fill="#763400" d="M 2518.5,1689.5 C 2518.71,1691.18 2518.05,1692.18 2516.5,1692.5C 2516.93,1691.29 2517.6,1690.29 2518.5,1689.5 Z"/></g>
<g><path style="opacity:1" fill="#c06b00" d="M 1390.5,1692.5 C 1388.82,1694.83 1386.49,1695.83 1383.5,1695.5C 1317,1695.83 1250.66,1695.5 1184.5,1694.5C 1250.23,1694.46 1316.07,1694.46 1382,1694.5C 1384.74,1693.52 1387.57,1692.85 1390.5,1692.5 Z"/></g>
<g><path style="opacity:1" fill="#b86500" d="M 1945.5,1691.5 C 1948.46,1692.66 1951.46,1693.66 1954.5,1694.5C 1953.06,1695.1 1951.4,1695.1 1949.5,1694.5C 1947.6,1694.26 1946.26,1693.26 1945.5,1691.5 Z"/></g>
<g><path style="opacity:1" fill="#c16d00" d="M 2172.5,1694.5 C 2100.17,1695.83 2027.83,1695.83 1955.5,1694.5C 2028.1,1693.88 2100.43,1693.88 2172.5,1694.5 Z"/></g>
<g><path style="opacity:1" fill="#a15400" d="M 2181.5,1692.5 C 2179.57,1694.98 2177.24,1695.98 2174.5,1695.5C 2173.83,1695.5 2173.5,1695.17 2173.5,1694.5C 2176,1693.63 2178.67,1692.96 2181.5,1692.5 Z"/></g>
<g><path style="opacity:1" fill="#9b4f00" d="M 2516.5,1692.5 C 2515.21,1694.62 2513.38,1696.29 2511,1697.5C 2510.6,1697.27 2510.43,1696.94 2510.5,1696.5C 2511.78,1694.27 2513.78,1692.94 2516.5,1692.5 Z"/></g>
<g><path style="opacity:1" fill="#763400" d="M 1179.5,1694.5 C 1181.14,1694.93 1182.47,1694.93 1183.5,1694.5C 1183.83,1694.5 1184.17,1694.5 1184.5,1694.5C 1250.66,1695.5 1317,1695.83 1383.5,1695.5C 1316,1696.67 1248.33,1696.83 1180.5,1696C 1179.94,1695.62 1179.61,1695.12 1179.5,1694.5 Z"/></g>
<g><path style="opacity:1" fill="#763400" d="M 1949.5,1694.5 C 1951.4,1695.1 1953.06,1695.1 1954.5,1694.5C 1954.83,1694.5 1955.17,1694.5 1955.5,1694.5C 2027.83,1695.83 2100.17,1695.83 2172.5,1694.5C 2172.83,1694.5 2173.17,1694.5 2173.5,1694.5C 2173.5,1695.17 2173.83,1695.5 2174.5,1695.5C 2100.33,1696.67 2026,1696.83 1951.5,1696C 1950.58,1695.72 1949.92,1695.22 1949.5,1694.5 Z"/></g>
<g><path style="opacity:1" fill="#ae5d00" d="M 2302.5,1696.5 C 2371.5,1695.17 2440.5,1695.17 2509.5,1696.5C 2440.77,1697.1 2371.77,1697.1 2302.5,1696.5 Z"/></g>
<g><path style="opacity:0.349" fill="#310000" d="M 665.5,2001.5 C 664.833,2002.17 664.833,2002.17 665.5,2001.5 Z"/></g>
</svg>
